<?xml version="1.0" encoding="UTF-8" standalone="no"?>
<svg
   xmlns:dc="http://purl.org/dc/elements/1.1/"
   xmlns:cc="http://creativecommons.org/ns#"
   xmlns:rdf="http://www.w3.org/1999/02/22-rdf-syntax-ns#"
   xmlns:svg="http://www.w3.org/2000/svg"
   xmlns="http://www.w3.org/2000/svg"
   viewBox="0 0 1440 1440"
   height="1440"
   width="1440"
   xml:space="preserve"
   id="svg2"
   version="1.1"><metadata
     id="metadata8"><rdf:RDF><cc:Work
         rdf:about=""><dc:format>image/svg+xml</dc:format><dc:type
           rdf:resource="http://purl.org/dc/dcmitype/StillImage" /></cc:Work></rdf:RDF></metadata><defs
     id="defs6"><clipPath
       id="clipPath18"
       clipPathUnits="userSpaceOnUse"><path
         id="path16"
         d="M 0,1080 H 1080 V 0 H 0 Z" /></clipPath></defs><g
     transform="matrix(1.3333333,0,0,-1.3333333,0,1440)"
     id="g10"><g
       id="g12"><g
         clip-path="url(#clipPath18)"
         id="g14"><g
           transform="translate(575.8311,726.9746)"
           id="g20"><path
             id="path22"
             style="fill:#FFFFFF;fill-opacity:1;fill-rule:nonzero;stroke:none"
             d="M 0,0 -0.006,0.001 C -0.086,-0.174 -0.165,-0.349 -0.241,-0.525 -0.165,-0.349 -0.08,-0.175 0,0" /></g><g
           transform="translate(629.9946,631.3701)"
           id="g24"><path
             id="path26"
             style="fill:#FFFFFF;fill-opacity:1;fill-rule:nonzero;stroke:none"
             d="M 0,0 C 0.003,-0.005 0.007,-0.01 0.01,-0.015 -0.299,0.453 -0.61,0.915 -0.927,1.358 -0.925,1.356 -0.923,1.354 -0.922,1.351 -0.611,0.915 -0.304,0.46 0,0" /></g><g
           transform="translate(633.374,625.5249)"
           id="g28"><path
             id="path30"
             style="fill:#FFFFFF;fill-opacity:1;fill-rule:nonzero;stroke:none"
             d="M 0,0 C 0.015,-0.028 0.029,-0.054 0.044,-0.082 -0.414,0.825 -0.88,1.693 -1.353,2.535 -1.352,2.533 -1.35,2.53 -1.349,2.528 -0.892,1.715 -0.442,0.875 0,0" /></g><g
           transform="translate(623.4951,638.9722)"
           id="g32"><path
             id="path34"
             style="fill:#FFFFFF;fill-opacity:1;fill-rule:nonzero;stroke:none"
             d="M 0,0 C -0.583,0.506 -1.175,0.988 -1.783,1.435 -1.176,0.988 -0.584,0.507 -0.001,0.001 Z" /></g><g
           transform="translate(624.5303,638.0039)"
           id="g36"><path
             id="path38"
             style="fill:#FFFFFF;fill-opacity:1;fill-rule:nonzero;stroke:none"
             d="M 0,0 C -0.164,0.153 -0.325,0.315 -0.49,0.465 -0.487,0.463 -0.485,0.461 -0.482,0.458 -0.32,0.31 -0.162,0.151 0,0" /></g><g
           transform="translate(626.3877,636.0825)"
           id="g40"><path
             id="path42"
             style="fill:#FFFFFF;fill-opacity:1;fill-rule:nonzero;stroke:none"
             d="M 0,0 C -0.184,0.204 -0.366,0.414 -0.552,0.612 -0.549,0.609 -0.547,0.607 -0.545,0.604 -0.361,0.409 -0.182,0.202 0,0" /></g><g
           transform="translate(630.8862,629.9663)"
           id="g44"><path
             id="path46"
             style="fill:#FFFFFF;fill-opacity:1;fill-rule:nonzero;stroke:none"
             d="M 0,0 C -0.104,0.172 -0.207,0.353 -0.312,0.52 L -0.308,0.513 C -0.204,0.348 -0.103,0.169 0,0" /></g><g
           transform="translate(565.2969,630.7295)"
           id="g48"><path
             id="path50"
             style="fill:#FFFFFF;fill-opacity:1;fill-rule:nonzero;stroke:none"
             d="m 0,0 c -0.077,-0.069 -0.153,-0.137 -0.229,-0.208 0.002,0.001 0.004,0.003 0.006,0.005 C -0.149,-0.134 -0.074,-0.068 0,0" /></g><g
           transform="translate(569.1602,634.0947)"
           id="g52"><path
             id="path54"
             style="fill:#FFFFFF;fill-opacity:1;fill-rule:nonzero;stroke:none"
             d="M 0,0 C -0.002,-0.001 -0.003,-0.002 -0.005,-0.004 -0.003,-0.002 -0.002,-0.001 -0.001,0 0,0 0,0 0,0" /></g><g
           transform="translate(567.3389,632.5664)"
           id="g56"><path
             id="path58"
             style="fill:#FFFFFF;fill-opacity:1;fill-rule:nonzero;stroke:none"
             d="m 0,0 c -0.079,-0.069 -0.16,-0.134 -0.239,-0.203 0.068,0.059 0.137,0.115 0.205,0.174 C -0.022,-0.019 -0.011,-0.01 0,0" /></g><g
           transform="translate(610.4932,637.1763)"
           id="g60"><path
             id="path62"
             style="fill:#FFFFFF;fill-opacity:1;fill-rule:nonzero;stroke:none"
             d="m 0,0 c -0.008,0.002 -0.017,0.005 -0.025,0.008 0.001,0 0.002,0 0.002,-0.001 C -0.016,0.005 -0.008,0.002 0,0" /></g><g
           transform="translate(606.2603,638.2568)"
           id="g64"><path
             id="path66"
             style="fill:#FFFFFF;fill-opacity:1;fill-rule:nonzero;stroke:none"
             d="m 0,0 c 0.001,0 0.002,0 0.002,0 -0.113,0.021 -0.226,0.049 -0.34,0.07 v 0 C -0.225,0.05 -0.113,0.022 0,0" /></g><g
           transform="translate(608.3799,637.7827)"
           id="g68"><path
             id="path70"
             style="fill:#FFFFFF;fill-opacity:1;fill-rule:nonzero;stroke:none"
             d="M 0,0 C 0.001,0 0.003,0 0.004,-0.001 -0.061,0.016 -0.125,0.035 -0.19,0.051 h 0.001 C -0.126,0.035 -0.063,0.016 0,0" /></g><g
           transform="translate(530.0757,619.0732)"
           id="g72"><path
             id="path74"
             style="fill:#FFFFFF;fill-opacity:1;fill-rule:nonzero;stroke:none"
             d="M 0,0 0.159,0.181 -0.316,0.252 Z" /></g><g
           transform="translate(528.2598,562.665)"
           id="g76"><path
             id="path78"
             style="fill:#FFFFFF;fill-opacity:1;fill-rule:nonzero;stroke:none"
             d="M 0,0 C 0,-0.001 0.001,-0.001 0.001,-0.002 -9.576,18.456 -21.146,28.505 -36.166,36.218 -21.147,28.505 -9.578,18.457 0,0" /></g><g
           transform="translate(532.4795,562.4043)"
           id="g80"><path
             id="path82"
             style="fill:#FFFFFF;fill-opacity:1;fill-rule:nonzero;stroke:none"
             d="M 0,0 C -6.757,26.517 -21.344,39.674 -41.642,46.212 -21.344,39.674 -6.758,26.517 0,0" /></g><g
           transform="translate(494.4536,610.6504)"
           id="g84"><path
             id="path86"
             style="fill:#FFFFFF;fill-opacity:1;fill-rule:nonzero;stroke:none"
             d="M 0,0 C -0.001,0 -0.002,0 -0.003,0.001 11.65,-4.135 21.391,-10.557 28.821,-20.545 21.391,-10.558 11.652,-4.136 0,0" /></g><g
           transform="translate(498.9746,609.2979)"
           id="g88"><path
             id="path90"
             style="fill:#FFFFFF;fill-opacity:1;fill-rule:nonzero;stroke:none"
             d="M 0,0 C 3.731,-1.241 7.603,-2.847 11.736,-4.97 7.604,-2.847 3.731,-1.24 0,0" /></g><g
           transform="translate(513.0762,550.1685)"
           id="g92"><path
             id="path94"
             style="fill:#FFFFFF;fill-opacity:1;fill-rule:nonzero;stroke:none"
             d="M 0,0 C 0.353,-0.146 0.668,-0.354 0.966,-0.598 0.669,-0.354 0.353,-0.145 0,0" /></g><g
           transform="translate(550.2622,516.8496)"
           id="g96"><path
             id="path98"
             style="fill:#FFFFFF;fill-opacity:1;fill-rule:nonzero;stroke:none"
             d="M 0,0 C -3.376,3.565 -6.812,6.669 -10.234,9.104 -6.812,6.669 -3.376,3.565 0,0" /></g><g
           transform="translate(552.7646,511.918)"
           id="g100"><path
             id="path102"
             style="fill:#FFFFFF;fill-opacity:1;fill-rule:nonzero;stroke:none"
             d="M 0,0 C -0.771,-0.657 -1.882,-1.285 -2.953,-1.756 -1.882,-1.285 -0.771,-0.658 0,0" /></g><g
           transform="translate(531.1221,493.9004)"
           id="g104"><path
             id="path106"
             style="fill:#FFFFFF;fill-opacity:1;fill-rule:nonzero;stroke:none"
             d="M 0,0 C -0.537,2.674 -0.962,5.515 -1.254,8.537 -0.963,5.515 -0.537,2.674 0,0" /></g><g
           transform="translate(531.3223,503.6182)"
           id="g108"><path
             id="path110"
             style="fill:#FFFFFF;fill-opacity:1;fill-rule:nonzero;stroke:none"
             d="M 0,0 C -0.442,-0.387 -0.931,-0.782 -1.455,-1.181 -0.931,-0.782 -0.443,-0.387 0,0" /></g><g
           transform="translate(531.791,497.7607)"
           id="g112"><path
             id="path114"
             style="fill:#FFFFFF;fill-opacity:1;fill-rule:nonzero;stroke:none"
             d="M 0,0 C 0.262,-3.042 0.559,-6.105 0.945,-9.228 0.559,-6.105 0.263,-3.041 0,0" /></g><g
           transform="translate(528.0234,517.7803)"
           id="g116"><path
             id="path118"
             style="fill:#FFFFFF;fill-opacity:1;fill-rule:nonzero;stroke:none"
             d="M 0,0 C -0.913,-0.884 -2.177,-1.716 -3.597,-2.466 -2.177,-1.716 -0.913,-0.884 0,0" /></g><g
           transform="translate(515.8813,512.2676)"
           id="g120"><path
             id="path122"
             style="fill:#FFFFFF;fill-opacity:1;fill-rule:nonzero;stroke:none"
             d="M 0,0 C -0.302,0.525 -0.572,1.037 -0.764,1.461 -0.572,1.036 -0.302,0.525 0,0" /></g><g
           transform="translate(518.9009,532.998)"
           id="g124"><path
             id="path126"
             style="fill:#FFFFFF;fill-opacity:1;fill-rule:nonzero;stroke:none"
             d="M 0,0 C 0.095,0.503 0.517,2.857 0.652,5.8 0.517,2.857 0.095,0.503 0,0" /></g><g
           transform="translate(519.5913,540.2026)"
           id="g128"><path
             id="path130"
             style="fill:#FFFFFF;fill-opacity:1;fill-rule:nonzero;stroke:none"
             d="M 0,0 C 0.028,2.735 -0.251,5.77 -1.244,8.245 -0.252,5.769 0.028,2.735 0,0" /></g><g
           transform="translate(517.5977,531.71)"
           id="g132"><path
             id="path134"
             style="fill:#FFFFFF;fill-opacity:1;fill-rule:nonzero;stroke:none"
             d="M 0,0 C 0.322,0.042 0.612,0.185 0.837,0.396 0.612,0.185 0.322,0.043 0,0" /></g><g
           transform="translate(516.6104,531.5957)"
           id="g136"><path
             id="path138"
             style="fill:#FFFFFF;fill-opacity:1;fill-rule:nonzero;stroke:none"
             d="M 0,0 C 0.406,0.043 0.752,0.084 0.987,0.114 0.752,0.084 0.406,0.043 0,0" /></g><g
           transform="translate(501.8901,430.584)"
           id="g140"><path
             id="path142"
             style="fill:#FFFFFF;fill-opacity:1;fill-rule:nonzero;stroke:none"
             d="M 0,0 C -0.285,-0.381 -0.737,-0.607 -1.211,-0.607 -0.737,-0.607 -0.285,-0.382 0,0" /></g><g
           transform="translate(526.4023,500.0371)"
           id="g144"><path
             id="path146"
             style="fill:#FFFFFF;fill-opacity:1;fill-rule:nonzero;stroke:none"
             d="M 0,0 C 0.203,-1.721 0.46,-3.365 0.745,-4.973 0.46,-3.364 0.203,-1.72 0,0" /></g><g
           transform="translate(542.4858,510.416)"
           id="g148"><path
             id="path150"
             style="fill:#FFFFFF;fill-opacity:1;fill-rule:nonzero;stroke:none"
             d="M 0,0 C 0.242,-0.236 0.458,-0.437 0.637,-0.6 0.458,-0.437 0.242,-0.236 0,0" /></g><g
           transform="translate(543.123,509.8164)"
           id="g152"><path
             id="path154"
             style="fill:#FFFFFF;fill-opacity:1;fill-rule:nonzero;stroke:none"
             d="M 0,0 C 0.737,-0.664 2.125,-1.827 3.507,-2.543 2.125,-1.826 0.737,-0.664 0,0" /></g><g
           transform="translate(554.4268,452.7998)"
           id="g156"><path
             id="path158"
             style="fill:#FFFFFF;fill-opacity:1;fill-rule:nonzero;stroke:none"
             d="M 0,0 C -4.079,2.331 -9.315,6.135 -14.23,12.179 -9.315,6.135 -4.08,2.331 0,0" /></g><g
           transform="translate(536.5498,519.8115)"
           id="g160"><path
             id="path162"
             style="fill:#FFFFFF;fill-opacity:1;fill-rule:nonzero;stroke:none"
             d="M 0,0 C -0.026,-0.102 -0.07,-0.19 -0.094,-0.293 -0.07,-0.19 -0.026,-0.102 0,0" /></g><g
           transform="translate(561.1104,453.7832)"
           id="g164"><path
             id="path166"
             style="fill:#FFFFFF;fill-opacity:1;fill-rule:nonzero;stroke:none"
             d="M 0,0 C -0.532,6.403 -2.694,13.346 -5.657,20.206 -2.694,13.346 -0.532,6.403 0,0" /></g><g
           transform="translate(520.1191,458.9775)"
           id="g168"><path
             id="path170"
             style="fill:#FFFFFF;fill-opacity:1;fill-rule:nonzero;stroke:none"
             d="M 0,0 C -0.183,-0.311 -0.474,-0.51 -0.794,-0.655 -0.474,-0.51 -0.183,-0.311 0,0" /></g><g
           transform="translate(482.2778,503.792)"
           id="g172"><path
             id="path174"
             style="fill:#FFFFFF;fill-opacity:1;fill-rule:nonzero;stroke:none"
             d="M 0,0 C -0.571,0.485 -1.154,0.903 -1.739,1.235 V 1.234 C -1.154,0.903 -0.571,0.485 0,0" /></g><g
           transform="translate(478.4819,487.4551)"
           id="g176"><path
             id="path178"
             style="fill:#FFFFFF;fill-opacity:1;fill-rule:nonzero;stroke:none"
             d="M 0,0 C 0.596,0.059 1.132,0.126 1.516,0.182 1.132,0.126 0.596,0.059 0,0" /></g><g
           transform="translate(538.21,485.9766)"
           id="g180"><path
             id="path182"
             style="fill:#FFFFFF;fill-opacity:1;fill-rule:nonzero;stroke:none"
             d="M 0,0 C -0.181,1.099 -0.349,2.167 -0.473,3.175 -0.349,2.167 -0.181,1.099 0,0" /></g><g
           transform="translate(497.1484,558.5732)"
           id="g184"><path
             id="path186"
             style="fill:#FFFFFF;fill-opacity:1;fill-rule:nonzero;stroke:none"
             d="M 0,0 C -0.234,0.284 -0.492,0.521 -0.773,0.718 -0.492,0.521 -0.234,0.284 0,0" /></g><g
           transform="translate(498.2202,503.0479)"
           id="g188"><path
             id="path190"
             style="fill:#FFFFFF;fill-opacity:1;fill-rule:nonzero;stroke:none"
             d="M 0,0 C 3.126,3.815 6.833,7.497 10.864,10.755 6.833,7.497 3.126,3.815 0,0" /></g><g
           transform="translate(501.1841,557.2178)"
           id="g192"><path
             id="path194"
             style="fill:#FFFFFF;fill-opacity:1;fill-rule:nonzero;stroke:none"
             d="M 0,0 C 1.561,-4.755 0.822,-11.118 0.429,-13.654 0.823,-11.118 1.561,-4.755 0,0" /></g><g
           transform="translate(500.3662,559.1416)"
           id="g196"><path
             id="path198"
             style="fill:#FFFFFF;fill-opacity:1;fill-rule:nonzero;stroke:none"
             d="M 0,0 C 0.597,-0.249 1.199,-0.589 1.796,-1 1.199,-0.588 0.597,-0.249 0,0" /></g><g
           transform="translate(500.1367,541.2544)"
           id="g200"><path
             id="path202"
             style="fill:#FFFFFF;fill-opacity:1;fill-rule:nonzero;stroke:none"
             d="M 0,0 C 0.22,0.029 0.422,0.107 0.6,0.222 0.422,0.108 0.22,0.029 0,0" /></g><g
           transform="translate(498.2202,503.0479)"
           id="g204"><path
             id="path206"
             style="fill:#FFFFFF;fill-opacity:1;fill-rule:nonzero;stroke:none"
             d="M 0,0 C -0.714,-0.87 -1.385,-1.748 -2.035,-2.629 -1.385,-1.748 -0.714,-0.87 0,0" /></g><g
           transform="translate(501.6104,442.541)"
           id="g208"><path
             id="path210"
             style="fill:#FFFFFF;fill-opacity:1;fill-rule:nonzero;stroke:none"
             d="M 0,0 C 0.336,-0.582 0.654,-1.148 0.954,-1.701 V -1.7 C 0.654,-1.148 0.336,-0.582 0,0" /></g><g
           transform="translate(529.3643,506.7881)"
           id="g212"><path
             id="path214"
             style="fill:#FFFFFF;fill-opacity:1;fill-rule:nonzero;stroke:none"
             d="M 0,0 C -0.509,-0.482 -1.099,-0.977 -1.786,-1.494 -1.099,-0.977 -0.509,-0.482 0,0" /></g><g
           transform="translate(507.7017,449.627)"
           id="g216"><path
             id="path218"
             style="fill:#FFFFFF;fill-opacity:1;fill-rule:nonzero;stroke:none"
             d="M 0,0 C -0.708,-1.045 -1.376,-2.105 -2.025,-3.172 -1.376,-2.105 -0.707,-1.045 0,0" /></g><g
           transform="translate(530.7319,516.2783)"
           id="g220"><path
             id="path222"
             style="fill:#FFFFFF;fill-opacity:1;fill-rule:nonzero;stroke:none"
             d="M 0,0 V 0.001 C -1.52,-1.728 -3.887,-3.176 -6.304,-4.328 -3.888,-3.176 -1.52,-1.728 0,0" /></g><g
           transform="translate(522.0234,510.8975)"
           id="g224"><path
             id="path226"
             style="fill:#FFFFFF;fill-opacity:1;fill-rule:nonzero;stroke:none"
             d="M 0,0 C 0.787,0.317 1.598,0.669 2.404,1.053 1.598,0.669 0.787,0.317 0,0" /></g><g
           transform="translate(508.7324,457.7988)"
           id="g228"><path
             id="path230"
             style="fill:#FFFFFF;fill-opacity:1;fill-rule:nonzero;stroke:none"
             d="M 0,0 C 0.339,-1.969 0.786,-3.723 1.396,-5.322 0.786,-3.723 0.339,-1.969 0,0" /></g><g
           transform="translate(511.3564,487.2412)"
           id="g232"><path
             id="path234"
             style="fill:#FFFFFF;fill-opacity:1;fill-rule:nonzero;stroke:none"
             d="M 0,0 C -0.974,-1.654 -1.749,-3.431 -2.33,-5.337 -1.749,-3.431 -0.974,-1.654 0,0" /></g><g
           transform="translate(516.7842,460.2871)"
           id="g236"><path
             id="path238"
             style="fill:#FFFFFF;fill-opacity:1;fill-rule:nonzero;stroke:none"
             d="M 0,0 C -1.87,-1.92 -3.633,-3.996 -5.327,-6.145 -3.633,-3.996 -1.869,-1.92 0,0" /></g><g
           transform="translate(516.7842,460.2871)"
           id="g240"><path
             id="path242"
             style="fill:#FFFFFF;fill-opacity:1;fill-rule:nonzero;stroke:none"
             d="M 0,0 C -2.004,5.447 -3.369,11.754 -4.298,17.808 -3.369,11.754 -2.005,5.447 0,0" /></g><g
           transform="translate(605.958,645.8018)"
           id="g244"><path
             id="path246"
             style="fill:#FFFFFF;fill-opacity:1;fill-rule:nonzero;stroke:none"
             d="M 0,0 C -0.08,0.005 -0.155,0.017 -0.236,0.021 -0.365,0.029 -0.502,0.026 -0.632,0.032 -0.421,0.021 -0.208,0.013 0,0" /></g><g
           transform="translate(632.0249,628.0532)"
           id="g248"><path
             id="path250"
             style="fill:#FFFFFF;fill-opacity:1;fill-rule:nonzero;stroke:none"
             d="M 0,0 C -0.001,0.002 -0.002,0.004 -0.003,0.006 -0.156,0.278 -0.313,0.532 -0.467,0.796 -0.473,0.805 -0.478,0.813 -0.483,0.822 -0.322,0.547 -0.159,0.283 0,0" /></g><g
           transform="translate(630.5781,630.479)"
           id="g252"><path
             id="path254"
             style="fill:#FFFFFF;fill-opacity:1;fill-rule:nonzero;stroke:none"
             d="M 0,0 -0.004,0.007 C -0.192,0.305 -0.383,0.588 -0.573,0.876 -0.577,0.881 -0.58,0.886 -0.583,0.891 -0.389,0.596 -0.192,0.305 0,0" /></g><g
           transform="translate(633.417,625.4434)"
           id="g256"><path
             id="path258"
             style="fill:#FFFFFF;fill-opacity:1;fill-rule:nonzero;stroke:none"
             d="M 0,0 C 0,0 0.001,0 0.001,0 -0.014,0.028 -0.028,0.053 -0.043,0.082 -0.029,0.054 -0.014,0.028 0,0" /></g><g
           transform="translate(625.8428,636.687)"
           id="g260"><path
             id="path262"
             style="fill:#FFFFFF;fill-opacity:1;fill-rule:nonzero;stroke:none"
             d="M 0,0 C -0.002,0.002 -0.004,0.005 -0.007,0.007 -0.216,0.231 -0.424,0.458 -0.636,0.673 -0.637,0.674 -0.638,0.675 -0.638,0.675 -0.423,0.458 -0.212,0.227 0,0" /></g><g
           transform="translate(624.0479,638.4624)"
           id="g264"><path
             id="path266"
             style="fill:#FFFFFF;fill-opacity:1;fill-rule:nonzero;stroke:none"
             d="M 0,0 C -0.003,0.002 -0.005,0.005 -0.008,0.007 -0.19,0.173 -0.368,0.35 -0.553,0.51 L -0.554,0.511 C -0.367,0.348 -0.186,0.169 0,0" /></g><g
           transform="translate(627.499,634.7881)"
           id="g268"><path
             id="path270"
             style="fill:#FFFFFF;fill-opacity:1;fill-rule:nonzero;stroke:none"
             d="m 0,0 c -0.001,0.002 -0.003,0.004 -0.005,0.006 -0.211,0.26 -0.423,0.518 -0.638,0.768 L -0.646,0.778 C -0.429,0.525 -0.214,0.264 0,0" /></g><g
           transform="translate(629.0728,632.7212)"
           id="g272"><path
             id="path274"
             style="fill:#FFFFFF;fill-opacity:1;fill-rule:nonzero;stroke:none"
             d="M 0,0 C -0.001,0.002 -0.003,0.005 -0.005,0.007 -0.208,0.293 -0.415,0.571 -0.622,0.847 -0.624,0.85 -0.626,0.852 -0.628,0.854 -0.417,0.574 -0.208,0.291 0,0" /></g><g
           transform="translate(567.0957,632.3604)"
           id="g276"><path
             id="path278"
             style="fill:#FFFFFF;fill-opacity:1;fill-rule:nonzero;stroke:none"
             d="M 0,0 C -0.002,-0.001 -0.004,-0.003 -0.005,-0.004 -0.572,-0.5 -1.134,-1.014 -1.694,-1.536 -1.715,-1.555 -1.736,-1.574 -1.757,-1.593 -1.174,-1.05 -0.59,-0.516 0,0" /></g><g
           transform="translate(565.0737,630.5264)"
           id="g280"><path
             id="path282"
             style="fill:#FFFFFF;fill-opacity:1;fill-rule:nonzero;stroke:none"
             d="m 0,0 c -0.002,-0.002 -0.004,-0.004 -0.006,-0.005 -0.662,-0.624 -1.322,-1.265 -1.979,-1.923 0.001,0 0.001,0 0.001,0 C -1.325,-1.267 -0.665,-0.625 0,0" /></g><g
           transform="translate(571.2676,635.7202)"
           id="g284"><path
             id="path286"
             style="fill:#FFFFFF;fill-opacity:1;fill-rule:nonzero;stroke:none"
             d="M 0,0 C 0,0 0,0 -0.001,0 -0.667,-0.492 -1.326,-1 -1.979,-1.525 -1.983,-1.528 -1.987,-1.531 -1.991,-1.535 -1.333,-1.007 -0.67,-0.494 0,0" /></g><g
           transform="translate(569.1592,634.0942)"
           id="g288"><path
             id="path290"
             style="fill:#FFFFFF;fill-opacity:1;fill-rule:nonzero;stroke:none"
             d="M 0,0 C -0.001,-0.001 -0.002,-0.002 -0.004,-0.003 -0.614,-0.496 -1.219,-1.006 -1.82,-1.528 -1.832,-1.538 -1.843,-1.547 -1.854,-1.557 -1.24,-1.024 -0.623,-0.502 0,0" /></g><g
           transform="translate(572.4687,636.5635)"
           id="g292"><path
             id="path294"
             style="fill:#FFFFFF;fill-opacity:1;fill-rule:nonzero;stroke:none"
             d="M 0,0 C -0.395,-0.273 -0.792,-0.542 -1.181,-0.828 L -1.182,-0.83 C -0.792,-0.542 -0.395,-0.274 0,0" /></g><g
           transform="translate(634.8027,619.3599)"
           id="g296"><path
             id="path298"
             style="fill:#FFFFFF;fill-opacity:1;fill-rule:nonzero;stroke:none"
             d="M 0,0 C -2.916,1.307 -5.282,2.704 -7.456,4.108 -5.282,2.704 -2.916,1.306 0,0" /></g><g
           transform="translate(610.5054,637.1719)"
           id="g300"><path
             id="path302"
             style="fill:#FFFFFF;fill-opacity:1;fill-rule:nonzero;stroke:none"
             d="M 0,0 C -0.001,0 -0.003,0.001 -0.004,0.002 0.73,-0.234 1.462,-0.492 2.19,-0.774 1.463,-0.493 0.733,-0.234 0,0" /></g><g
           transform="translate(608.1904,637.834)"
           id="g304"><path
             id="path306"
             style="fill:#FFFFFF;fill-opacity:1;fill-rule:nonzero;stroke:none"
             d="m 0,0 h -0.001 c -0.64,0.159 -1.282,0.298 -1.927,0.422 0,0 -0.001,0.001 -0.002,0.001 C -1.285,0.298 -0.641,0.161 0,0" /></g><g
           transform="translate(605.9219,638.3271)"
           id="g308"><path
             id="path310"
             style="fill:#FFFFFF;fill-opacity:1;fill-rule:nonzero;stroke:none"
             d="M 0,0 C -0.739,0.135 -1.48,0.25 -2.225,0.338 -1.479,0.25 -0.738,0.136 0,0 Z" /></g><g
           transform="translate(610.4702,637.1836)"
           id="g312"><path
             id="path314"
             style="fill:#FFFFFF;fill-opacity:1;fill-rule:nonzero;stroke:none"
             d="M 0,0 C 0,0 -0.001,0 -0.002,0.001 -0.694,0.221 -1.389,0.42 -2.086,0.598 -2.087,0.599 -2.089,0.599 -2.09,0.599 -1.391,0.419 -0.694,0.222 0,0" /></g><g
           transform="translate(618.5903,628.9556)"
           id="g316"><path
             id="path318"
             style="fill:#FFFFFF;fill-opacity:1;fill-rule:nonzero;stroke:none"
             d="m 0,0 c 0,0 -0.001,0 -0.002,0.001 0,0 0,0 0,0 -0.386,0.2 -0.784,0.395 -1.189,0.587 H -1.192 C -1.239,0.611 -1.288,0.632 -1.336,0.654 -1.43,0.697 -1.523,0.74 -1.617,0.783 -1.895,0.911 -2.176,1.037 -2.464,1.16 c 0,0.001 -10e-4,0.001 -0.002,0.001 -0.163,0.07 -0.329,0.138 -0.495,0.207 -0.001,10e-4 -0.003,10e-4 -0.004,0.002 -0.29,0.119 -0.586,0.235 -0.887,0.351 -0.002,0 -0.003,10e-4 -0.005,0.002 -0.161,0.061 -0.32,0.123 -0.483,0.183 -0.002,0 -0.003,0 -0.004,0.001 -0.092,0.033 -0.19,0.065 -0.283,0.098 -0.279,0.1 -0.559,0.199 -0.848,0.295 -0.004,0.001 -0.008,0.003 -0.012,0.004 -0.104,0.034 -0.202,0.071 -0.307,0.104 -0.001,10e-4 -0.001,10e-4 -0.002,10e-4 -0.518,0.167 -1.054,0.329 -1.608,0.484 -0.001,0.001 -0.002,0.001 -0.003,0.001 -0.033,0.009 -0.068,0.018 -0.101,0.026 -0.004,0.002 -0.009,0.003 -0.013,0.004 -0.25,0.069 -0.517,0.133 -0.775,0.199 -0.27,0.07 -0.532,0.142 -0.811,0.209 -0.001,0 -0.002,0 -0.003,0.001 -0.124,0.029 -0.253,0.057 -0.379,0.086 -10e-4,0 -0.003,10e-4 -0.004,10e-4 -0.545,0.126 -1.1,0.248 -1.68,0.362 -0.682,0.134 -1.389,0.26 -2.124,0.376 -0.352,0.056 -0.706,0.111 -1.071,0.163 -0.242,0.034 -0.483,0.068 -0.731,0.1 -0.644,0.085 -1.298,0.165 -1.984,0.237 -2.554,0.264 -4.937,0.389 -7.191,0.389 -0.963,0 -1.893,-0.031 -2.81,-0.076 -0.221,-0.011 -0.439,-0.023 -0.658,-0.036 -0.873,-0.053 -1.733,-0.121 -2.572,-0.212 -0.024,-0.002 -0.049,-0.004 -0.073,-0.007 -0.917,-0.101 -1.811,-0.229 -2.693,-0.374 -0.108,-0.017 -0.216,-0.037 -0.325,-0.055 -0.861,-0.147 -1.709,-0.311 -2.543,-0.497 -10e-4,0 -0.002,0 -0.004,0 0,0 0,0 -0.001,-10e-4 -0.868,-0.194 -1.723,-0.411 -2.57,-0.644 -0.768,-0.212 -1.529,-0.437 -2.284,-0.679 l -10e-4,-0.001 c -1.02,-0.326 -2.031,-0.684 -3.039,-1.061 -0.784,-0.292 -1.568,-0.593 -2.351,-0.913 -0.003,-0.002 -0.007,-0.003 -0.01,-0.004 -0.001,-0.001 -0.003,-0.002 -0.005,-0.003 -2.567,-1.049 -5.149,-2.235 -7.854,-3.522 1.031,0.711 2.052,1.384 3.067,2.036 0,0 0,0 0,0 0.074,0.047 0.146,0.091 0.219,0.137 0.233,0.147 0.466,0.292 0.698,0.438 0.721,0.452 1.437,0.891 2.149,1.313 10e-4,0 10e-4,0.001 10e-4,0.001 0.199,0.117 0.396,0.232 0.595,0.347 0.134,0.078 0.269,0.158 0.402,0.235 0.525,0.302 1.045,0.586 1.566,0.872 0.19,0.105 0.383,0.217 0.573,0.319 0.194,0.105 0.389,0.21 0.584,0.316 0.091,0.049 0.183,0.1 0.274,0.148 h 10e-4 c 0.971,0.509 1.937,0.997 2.894,1.449 0.002,10e-4 0.004,0.003 0.006,0.004 0.006,0.003 0.011,0.005 0.016,0.007 10e-4,0.001 0.002,0.001 0.003,0.002 0.207,0.098 0.411,0.184 0.618,0.279 0.577,0.266 1.153,0.528 1.726,0.773 0.339,0.145 0.675,0.278 1.013,0.415 0.431,0.176 0.862,0.352 1.29,0.516 0.38,0.146 0.758,0.282 1.135,0.418 0.375,0.136 0.749,0.267 1.122,0.393 0.407,0.138 0.812,0.27 1.217,0.396 0.329,0.103 0.656,0.2 0.983,0.295 0.436,0.127 0.87,0.253 1.302,0.367 0.269,0.071 0.535,0.133 0.803,0.199 0.48,0.118 0.961,0.238 1.438,0.341 0.07,0.015 0.139,0.026 0.209,0.041 0.686,0.144 1.369,0.27 2.048,0.382 0.298,0.049 0.592,0.085 0.888,0.128 0.483,0.07 0.966,0.144 1.445,0.197 h 0.002 c 0.011,10e-4 0.021,10e-4 0.031,0.002 0.73,0.079 1.456,0.142 2.178,0.181 0.646,0.036 1.289,0.051 1.929,0.056 0.086,0 0.173,0.007 0.259,0.007 0.154,0 0.305,-0.012 0.458,-0.013 0.467,-0.005 0.932,-0.019 1.396,-0.041 0.217,-0.01 0.433,-0.02 0.65,-0.033 0.665,-0.043 1.328,-0.098 1.986,-0.176 0.745,-0.087 1.486,-0.203 2.225,-0.337 0.114,-0.021 0.227,-0.049 0.34,-0.071 0.645,-0.124 1.287,-0.263 1.927,-0.423 0.065,-0.016 0.13,-0.035 0.194,-0.052 0.698,-0.178 1.393,-0.377 2.085,-0.597 0.008,-0.003 0.017,-0.006 0.025,-0.008 0.002,-10e-4 0.005,-0.002 0.007,-0.003 h 10e-4 c 0.001,0 0.003,-10e-4 0.004,-0.002 0.733,-0.234 1.463,-0.493 2.19,-0.774 0.002,-0.001 0.004,-0.001 0.006,-0.002 0.003,-0.001 0.005,-0.002 0.008,-0.003 0.767,-0.297 1.529,-0.621 2.289,-0.971 10e-4,0 0.002,0 0.003,-0.001 10e-4,0 0.002,-10e-4 0.003,-0.002 0.744,-0.342 1.482,-0.72 2.219,-1.112 0.227,-0.12 0.454,-0.243 0.68,-0.368 C 0.064,4.567 0.811,4.135 1.553,3.668 1.67,3.595 1.785,3.515 1.902,3.44 2.374,3.136 2.845,2.832 3.313,2.506 3.86,2.127 4.404,1.733 4.946,1.325 5.8,0.683 6.647,-0.001 7.489,-0.714 c 0.469,-0.397 0.938,-0.794 1.403,-1.212 0.074,-0.067 0.147,-0.14 0.22,-0.207 0.045,-0.04 0.089,-0.083 0.133,-0.124 0.471,-0.428 0.941,-0.866 1.408,-1.319 0.033,-0.031 0.067,-0.061 0.099,-0.092 0.003,-0.003 0.005,-0.005 0.007,-0.007 0.551,-0.537 1.099,-1.094 1.645,-1.661 0.168,-0.175 0.335,-0.354 0.502,-0.532 0.029,-0.03 0.057,-0.062 0.086,-0.092 0.37,-0.395 0.74,-0.795 1.108,-1.204 0.166,-0.184 0.332,-0.367 0.497,-0.554 l 0.002,-0.001 c 0.54,-0.612 1.079,-1.234 1.613,-1.877 -2.916,1.306 -5.281,2.704 -7.455,4.109 -0.725,0.468 -1.428,0.937 -2.123,1.404 -0.4,0.269 -0.799,0.535 -1.199,0.801 C 4.837,-2.885 4.236,-2.49 3.624,-2.104 3.403,-1.964 3.175,-1.829 2.951,-1.691 2.536,-1.436 2.114,-1.185 1.685,-0.937 1.294,-0.712 0.906,-0.486 0.499,-0.269 0.332,-0.179 0.17,-0.088 0,0 m -53.251,1.812 c 0.021,0.019 0.042,0.038 0.062,0.057 0.561,0.522 1.123,1.035 1.689,1.531 10e-4,0.002 0.003,0.003 0.005,0.005 0.002,0.001 0.003,0.002 0.005,0.003 0.079,0.069 0.159,0.134 0.239,0.203 0.601,0.521 1.206,1.032 1.816,1.524 0.001,0.002 0.003,0.003 0.005,0.004 0.036,0.029 0.074,0.057 0.11,0.087 l 0.006,0.004 c 0.004,0.003 0.008,0.006 0.012,0.009 0.654,0.525 1.313,1.034 1.978,1.525 10e-4,0 10e-4,10e-4 10e-4,10e-4 v 0 c 0.007,0.005 0.012,0.008 0.019,0.013 0,0 0,0 0,0 l 0.002,0.002 c 0.389,0.286 0.786,0.554 1.18,0.828 0.256,0.178 0.509,0.364 0.766,0.537 0,0 0.001,0 0.001,0.001 v 0 c 0.143,0.096 0.286,0.189 0.43,0.283 0,10e-4 0,10e-4 0,10e-4 0.213,0.14 0.431,0.271 0.645,0.408 0.363,0.232 0.723,0.468 1.091,0.69 0.1,0.061 0.2,0.124 0.301,0.184 10e-4,0 0.003,10e-4 0.004,0.002 0.008,0.005 0.017,0.009 0.025,0.014 1.376,0.819 2.789,1.57 4.243,2.254 0.153,0.071 0.305,0.142 0.458,0.212 0.537,0.246 1.081,0.482 1.631,0.71 0.161,0.066 0.32,0.136 0.483,0.201 0.697,0.28 1.401,0.549 2.119,0.8 0.022,0.007 0.044,0.013 0.065,0.021 0.748,0.259 1.506,0.505 2.278,0.732 0.066,0.019 0.135,0.036 0.202,0.055 0.731,0.211 1.47,0.412 2.225,0.595 0.14,0.033 0.284,0.061 0.425,0.094 0.691,0.161 1.387,0.317 2.099,0.453 0.248,0.047 0.505,0.085 0.756,0.129 0.62,0.11 1.238,0.222 1.875,0.313 0.428,0.062 0.872,0.108 1.309,0.161 0.48,0.059 0.952,0.126 1.442,0.175 0.943,0.094 1.904,0.169 2.885,0.225 0.958,0.054 1.895,0.082 2.81,0.083 0.781,0.002 1.539,-0.026 2.29,-0.063 0.13,-0.006 0.267,-0.003 0.396,-0.01 0.08,-0.005 0.156,-0.017 0.236,-0.022 0.033,-0.002 0.068,-0.003 0.102,-0.005 0.259,-0.018 0.506,-0.052 0.762,-0.074 0.526,-0.045 1.06,-0.079 1.572,-0.144 0.762,-0.099 1.504,-0.227 2.235,-0.372 0.214,-0.043 0.423,-0.091 0.634,-0.137 0.539,-0.118 1.069,-0.249 1.591,-0.394 0.205,-0.057 0.412,-0.112 0.614,-0.172 1.385,-0.417 2.713,-0.929 3.988,-1.543 0.187,-0.09 0.371,-0.187 0.556,-0.282 0.468,-0.239 0.929,-0.492 1.383,-0.759 0.179,-0.106 0.36,-0.209 0.537,-0.319 0.604,-0.374 1.2,-0.767 1.78,-1.193 0.607,-0.448 1.2,-0.93 1.783,-1.435 C 5.089,9.856 5.268,9.68 5.45,9.514 5.615,9.363 5.776,9.202 5.94,9.048 6.165,8.837 6.393,8.631 6.613,8.408 6.614,8.408 6.614,8.407 6.614,8.407 6.615,8.406 6.616,8.406 6.616,8.405 6.829,8.19 7.037,7.962 7.246,7.739 7.432,7.541 7.613,7.331 7.797,7.127 7.952,6.955 8.109,6.79 8.262,6.611 c 0,0 0,0 0,0 L 8.266,6.607 C 8.48,6.357 8.693,6.098 8.904,5.838 8.905,5.836 8.907,5.834 8.909,5.833 c 0,-0.001 0,-0.001 0,-0.001 0.319,-0.393 0.634,-0.796 0.945,-1.211 0,0 0,0 0,-0.001 0.002,-0.002 0.005,-0.005 0.007,-0.008 0.206,-0.275 0.413,-0.553 0.617,-0.839 0.316,-0.444 0.627,-0.905 0.937,-1.374 0.189,-0.287 0.381,-0.571 0.568,-0.868 0.106,-0.168 0.208,-0.348 0.313,-0.52 0.219,-0.361 0.439,-0.719 0.655,-1.09 0,-0.001 10e-4,-0.001 10e-4,-0.001 0.005,-0.009 0.01,-0.017 0.015,-0.026 0.155,-0.265 0.312,-0.519 0.464,-0.79 0.473,-0.841 0.939,-1.709 1.397,-2.617 0,0 -10e-4,0 -10e-4,10e-4 -0.056,0.059 -0.114,0.115 -0.171,0.174 -0.697,0.724 -1.399,1.421 -2.105,2.099 -0.002,0.002 -0.003,0.003 -0.004,0.004 -0.193,0.185 -0.385,0.368 -0.579,0.55 -0.003,0.003 -0.006,0.005 -0.009,0.008 C 11.033,0.193 10.097,1.017 9.155,1.806 8.537,2.324 7.917,2.828 7.292,3.31 7.037,3.508 6.78,3.696 6.523,3.888 5.932,4.329 5.338,4.754 4.741,5.164 4.524,5.313 4.308,5.465 4.09,5.61 3.339,6.11 2.583,6.582 1.823,7.031 1.642,7.138 1.459,7.241 1.278,7.345 0.466,7.811 -0.348,8.258 -1.169,8.667 c -0.816,0.405 -1.638,0.771 -2.463,1.12 -0.176,0.074 -0.352,0.146 -0.529,0.217 -0.25,0.102 -0.498,0.213 -0.749,0.309 -0.572,0.221 -1.147,0.423 -1.723,0.616 -0.239,0.08 -0.478,0.152 -0.718,0.227 -1.18,0.371 -2.369,0.689 -3.566,0.949 -1.199,0.26 -2.405,0.463 -3.621,0.607 -0.769,0.09 -1.542,0.158 -2.318,0.205 -0.751,0.045 -1.505,0.068 -2.263,0.072 -0.02,0 -0.04,0.002 -0.06,0.002 h -0.001 v 0 c -0.611,0.003 -1.226,-0.019 -1.841,-0.044 -0.546,-0.025 -1.093,-0.059 -1.641,-0.101 -0.354,-0.028 -0.706,-0.046 -1.061,-0.082 -0.03,-0.003 -0.061,-0.004 -0.091,-0.007 -0.015,-0.002 -0.029,-0.002 -0.044,-0.004 -0.018,-0.002 -0.036,-0.002 -0.054,-0.003 -0.002,-10e-4 -0.004,-10e-4 -0.005,-10e-4 -0.481,-0.051 -0.965,-0.124 -1.449,-0.19 -0.329,-0.046 -0.656,-0.086 -0.987,-0.139 -0.698,-0.112 -1.399,-0.237 -2.105,-0.38 -0.002,-10e-4 -0.005,-10e-4 -0.008,-0.002 h -0.002 c -0.9,-0.184 -1.805,-0.391 -2.717,-0.628 -0.032,-0.009 -0.064,-0.015 -0.096,-0.024 -0.928,-0.243 -1.861,-0.508 -2.801,-0.807 -0.004,-0.002 -0.008,-0.003 -0.012,-0.004 -0.611,-0.195 -1.227,-0.415 -1.843,-0.634 -0.181,-0.064 -0.361,-0.12 -0.543,-0.187 -0.061,-0.022 -0.12,-0.039 -0.181,-0.062 -0.74,-0.273 -1.485,-0.567 -2.234,-0.878 -0.724,-0.296 -1.452,-0.616 -2.183,-0.945 -10e-4,0 -10e-4,0 -0.002,0 -0.693,-0.313 -1.391,-0.642 -2.091,-0.983 -0.003,-0.002 -0.006,-0.003 -0.008,-0.004 -0.004,-0.002 -0.007,-0.004 -0.011,-0.005 -0.819,-0.399 -1.643,-0.82 -2.472,-1.258 -0.047,-0.026 -0.095,-0.051 -0.142,-0.077 -0.824,-0.438 -1.653,-0.894 -2.487,-1.372 0,-0.001 -0.001,-0.001 -0.001,-0.001 C -48.293,4.168 -48.293,4.168 -48.294,4.168 -48.357,4.132 -48.419,4.095 -48.482,4.059 -48.774,3.892 -49.065,3.726 -49.358,3.553 -49.774,3.308 -50.193,3.055 -50.612,2.8 -50.865,2.646 -51.12,2.484 -51.374,2.326 -51.586,2.194 -51.797,2.065 -52.01,1.93 c -0.004,-0.002 -0.008,-0.004 -0.012,-0.007 -0.33,-0.208 -0.66,-0.415 -0.992,-0.63 -0.002,-10e-4 -0.004,-10e-4 -0.005,-0.003 -0.46,-0.297 -0.923,-0.606 -1.386,-0.915 -0.365,-0.244 -0.728,-0.48 -1.095,-0.732 0,0 -10e-4,0 -10e-4,0 0.656,0.658 1.316,1.298 1.979,1.922 0.076,0.072 0.152,0.14 0.229,0.209 0.013,0.012 0.027,0.024 0.04,0.037 10e-4,0.001 10e-4,0.001 0.002,0.001 m -4.7,-63.673 -2.607,-6.259 c -2.623,4.859 -1.694,11.024 2.519,14.889 l 6.138,5.628 c 1.116,-1.736 1.76,-3.709 1.89,-5.803 -3.594,-1.772 -6.394,-4.744 -7.94,-8.455 m 8.102,-8.692 c -2.357,-0.969 -4.928,-1.182 -7.377,-0.629 l 3.201,7.686 c 2.32,5.569 8.295,8.567 14.043,7.269 l -3.201,-7.683 c -1.265,-3.034 -3.632,-5.394 -6.666,-6.643 m -4.391,-5.176 c 2.047,0.03 4.076,0.447 6.01,1.243 3.161,1.303 5.769,3.48 7.595,6.327 0.118,-0.03 0.237,-0.063 0.354,-0.097 2.434,-0.716 4.572,-2.162 6.143,-4.132 l -7.307,-3.985 c -4.093,-2.233 -9.068,-1.868 -12.795,0.644 m 13.309,-5.095 c 1.181,-1.761 1.883,-3.795 2.04,-5.899 l -8.284,0.82 c -3.269,0.322 -6.215,1.9 -8.298,4.439 -0.638,0.778 -1.173,1.619 -1.596,2.508 4.597,-3.37 10.693,-4.166 16.138,-1.868 m -24.56,13.515 c -3.15,2.884 -4.709,7.326 -3.771,11.676 l 1.747,8.14 c 2.075,-0.839 3.885,-2.233 5.234,-4.042 -3.743,-4.372 -4.891,-10.41 -3.21,-15.774 m 119.182,-84.945 c 0,-40.554 -19.287,-76.682 -49.165,-99.711 -3.294,-2.539 -6.717,-4.918 -10.257,-7.127 -0.048,-0.031 -0.096,-0.061 -0.144,-0.091 -0.675,-0.42 -1.354,-0.834 -2.038,-1.241 -0.051,-0.031 -0.102,-0.061 -0.153,-0.091 -2.809,-1.669 -5.687,-3.232 -8.631,-4.683 -0.074,-0.037 -0.148,-0.074 -0.222,-0.111 -0.644,-0.316 -1.291,-0.624 -1.941,-0.929 -0.179,-0.084 -0.357,-0.168 -0.536,-0.251 -0.621,-0.288 -1.245,-0.571 -1.872,-0.849 -0.194,-0.087 -0.389,-0.171 -0.585,-0.257 -0.635,-0.279 -1.272,-0.554 -1.913,-0.822 -0.098,-0.041 -0.198,-0.081 -0.297,-0.122 -2.054,-0.853 -4.136,-1.651 -6.243,-2.396 -0.299,-0.106 -0.598,-0.213 -0.899,-0.317 -0.458,-0.159 -0.919,-0.311 -1.379,-0.463 0.144,6.027 0.663,12.687 1.348,19.75 0.394,4.057 0.836,8.236 1.291,12.507 2.406,22.572 4.896,45.914 1.139,62.545 -5.673,25.139 -27.833,63.776 -48.999,77.854 -0.7,0.463 -1.615,0.377 -2.233,-0.175 0.708,2.137 12.64,15.269 18.031,21.565 0.431,-1.76 1.134,-3.423 2.126,-4.956 0.341,-0.532 0.719,-1.05 1.121,-1.536 2.802,-3.42 6.768,-5.541 11.167,-5.975 l 10.587,-1.049 c 0.56,-0.054 1.11,0.111 1.555,0.472 0.43,0.354 0.71,0.872 0.767,1.423 0,0.004 0,0.01 10e-4,0.014 0.363,3.669 -0.505,7.307 -2.456,10.406 l 7.07,3.857 c 1.027,0.56 1.411,1.856 0.846,2.886 -2.061,3.774 -5.429,6.548 -9.506,7.843 l 3.561,8.549 c 0.217,0.521 0.219,1.113 -0.006,1.655 -0.223,0.516 -0.627,0.917 -1.138,1.131 -3.027,1.26 -6.368,1.584 -9.567,0.95 -0.447,3.332 -1.904,6.465 -4.192,8.964 -0.795,0.861 -2.142,0.917 -3.003,0.124 l -6.146,-5.633 c -2.374,2.976 -5.674,5.026 -9.445,5.837 -0.555,0.118 -1.123,0.014 -1.6,-0.295 -0.476,-0.308 -0.804,-0.785 -0.923,-1.338 l -2.233,-10.398 c -0.128,-0.597 -0.224,-1.196 -0.286,-1.796 -0.385,-3.727 0.503,-7.454 2.572,-10.655 1.858,-2.877 4.57,-5.101 7.731,-6.37 -4.304,-5.532 -19.013,-21.044 -19.466,-22.994 l 0.391,5.005 c 1.855,32.176 9.547,59.166 18.758,80.606 2.753,1.261 5.366,2.499 7.795,3.669 12.832,6.17 22.116,10.633 38.53,8.924 11.92,-1.236 16.75,-4.482 22.343,-8.242 3.984,-2.677 8.103,-5.446 15.078,-7.75 0.154,-0.05 0.314,-0.075 0.474,-0.075 0.403,0 0.796,0.161 1.086,0.461 0.406,0.417 0.533,1.029 0.332,1.574 C 13.042,11.654 1.369,20.978 -18.536,19.876 -35.72,18.903 -47.133,12.454 -57.941,1.485 c 3.264,6.493 17.563,32.809 26.723,49.073 1.1,-0.752 2.233,-1.475 3.411,-2.156 8.075,-4.661 16.79,-6.895 25.077,-6.895 11.481,0 22.12,4.306 29.08,12.369 C 43.455,32.383 53.691,5.191 53.691,-24.349 Z m -162.153,-24.225 v 0 c -0.61,1.6 -1.057,3.354 -1.396,5.322 -0.193,1.124 -0.353,2.315 -0.483,3.597 -0.044,0.428 -0.084,0.865 -0.12,1.313 -0.204,2.493 -0.32,5.303 -0.401,8.53 -0.078,3.158 0.179,6.055 0.782,8.716 0.15,0.665 0.323,1.314 0.516,1.95 0.581,1.906 1.356,3.682 2.33,5.337 0.201,-2.09 0.451,-4.3 0.758,-6.571 0.116,-0.851 0.24,-1.711 0.372,-2.576 0.929,-6.054 2.294,-12.36 4.298,-17.807 -1.869,-1.92 -3.633,-3.997 -5.327,-6.145 -0.441,-0.559 -0.902,-1.094 -1.329,-1.666 m -15.675,158.174 c 1.488,-0.392 2.993,-0.845 4.521,-1.353 3.732,-1.24 7.604,-2.846 11.737,-4.969 2.542,-1.307 4.88,-2.806 7.044,-4.451 1.911,-1.452 3.69,-3.015 5.296,-4.706 2.739,-2.883 5.026,-6.095 6.836,-9.575 0.906,-1.74 1.692,-3.547 2.356,-5.412 1.255,-3.526 2.055,-7.27 2.417,-11.167 0.116,-1.259 0.202,-2.529 0.222,-3.82 -0.75,2.732 -1.593,5.308 -2.511,7.758 -0.306,0.816 -0.62,1.619 -0.943,2.408 -0.955,2.343 -1.972,4.585 -3.081,6.678 -0.652,1.229 -1.329,2.415 -2.031,3.562 -0.966,1.576 -1.98,3.075 -3.042,4.502 -7.43,9.988 -17.171,16.41 -28.824,20.546 0.001,-0.001 0.002,-0.001 0.003,-0.001 m 31.87,-38.542 c -3.547,5.605 -7.345,10.337 -11.46,14.409 -1.358,1.346 -2.754,2.614 -4.183,3.828 -2.939,2.494 -6.033,4.727 -9.296,6.776 -0.564,0.355 -1.134,0.704 -1.708,1.047 -1.445,0.865 -2.923,1.698 -4.435,2.503 -1.029,0.549 -2.074,1.086 -3.137,1.613 -1.072,0.53 -2.154,1.055 -3.26,1.567 -5.595,2.594 -11.638,4.974 -18.181,7.402 -0.499,0.186 -1.001,0.371 -1.507,0.557 0.198,0.417 0.396,0.837 0.597,1.259 5.02,-0.636 9.816,-1.471 14.365,-2.572 2.304,-0.556 4.544,-1.181 6.719,-1.881 20.298,-6.538 34.885,-19.695 41.642,-46.212 0.241,-0.948 0.473,-1.911 0.694,-2.893 -2.178,4.656 -4.458,8.821 -6.85,12.597 m 1.936,-9.444 c -2.261,3.055 -4.612,5.959 -7.175,8.71 -0.854,0.917 -1.732,1.817 -2.638,2.7 -2.825,2.753 -5.934,5.335 -9.441,7.75 -2.277,1.568 -4.717,3.068 -7.376,4.49 -4.938,2.643 -9.779,5.516 -14.458,8.493 -6.988,4.445 -13.591,9.113 -19.631,13.592 0.106,0.223 0.211,0.445 0.318,0.671 0.65,-0.24 1.291,-0.478 1.932,-0.716 1.538,-0.572 3.049,-1.143 4.531,-1.714 1.361,-0.523 2.706,-1.048 4.02,-1.577 4.889,-1.964 9.462,-3.977 13.753,-6.181 15.019,-7.713 26.589,-17.761 36.167,-36.219 -0.001,0 -0.001,0 -0.002,0.001 m 3.532,-64.904 c 0.263,-3.041 0.558,-6.105 0.945,-9.227 0.087,-0.696 0.197,-1.426 0.313,-2.162 -0.741,2.35 -1.39,4.855 -1.927,7.529 -0.537,2.674 -0.963,5.514 -1.255,8.537 0.524,0.398 1.013,0.794 1.455,1.181 0.135,-1.939 0.299,-3.897 0.469,-5.858 m -3.939,22.011 c 0.527,0.09 1.02,0.14 1.488,0.159 -0.027,-0.153 -0.058,-0.308 -0.105,-0.464 -0.02,-0.065 -0.034,-0.13 -0.066,-0.197 -0.245,-0.51 -0.648,-1.007 -1.146,-1.489 -0.912,-0.884 -2.177,-1.716 -3.597,-2.466 -0.627,-0.331 -1.282,-0.647 -1.945,-0.943 -1.658,-0.744 -3.37,-1.374 -4.836,-1.855 -0.293,-0.096 -0.577,-0.186 -0.847,-0.27 -0.272,-0.084 -0.53,-0.162 -0.775,-0.233 -0.052,0.087 -0.093,0.168 -0.142,0.254 -0.302,0.525 -0.572,1.036 -0.764,1.461 2.94,2.048 5.808,3.664 8.403,4.733 0.52,0.214 1.027,0.407 1.523,0.576 0.991,0.338 1.932,0.585 2.809,0.734 m -14.753,11.65 c 0.092,-0.006 0.183,-0.014 0.282,-0.014 0.846,0 1.713,0.051 2.463,0.115 0.277,0.023 0.529,0.049 0.766,0.073 0.406,0.043 0.752,0.084 0.987,0.114 0.322,0.043 0.612,0.185 0.838,0.396 0.113,0.106 0.209,0.229 0.285,0.365 0.077,0.136 0.133,0.285 0.164,0.444 0.004,0.016 0.009,0.044 0.017,0.083 0.095,0.503 0.516,2.858 0.651,5.8 0.021,0.452 0.035,0.919 0.04,1.395 0,0.003 -10e-4,0.007 -10e-4,0.01 0.028,2.735 -0.252,5.769 -1.244,8.245 -0.081,0.202 -0.157,0.408 -0.248,0.602 3.831,-2.242 7.607,-7.816 7.607,-16.226 v -9.752 c -0.819,-0.207 -1.673,-0.485 -2.546,-0.806 -3.213,-1.182 -6.752,-3.105 -10.401,-5.68 v 14.855 c 0.115,-0.005 0.228,-0.011 0.34,-0.019 m 1.509,17.607 c 1.997,-2.427 2.155,-7.399 1.86,-11.278 -0.006,-0.084 -0.013,-0.167 -0.02,-0.25 -0.041,-0.506 -0.089,-0.997 -0.143,-1.455 -0.061,-0.53 -0.128,-1.024 -0.196,-1.463 -1.271,-0.123 -2.465,-0.165 -3.35,-0.135 v 7.967 7.754 h 0.317 c 0.352,-0.145 0.669,-0.354 0.966,-0.598 0.197,-0.162 0.393,-0.331 0.566,-0.542 m -19.136,-56.502 c 0.19,0.344 0.387,0.687 0.588,1.032 0.283,0.483 0.569,0.966 0.875,1.447 0.028,0.044 0.057,0.089 0.087,0.133 0.047,0.072 0.094,0.145 0.141,0.216 2.939,4.536 6.815,8.934 10.837,12.641 0.147,0.133 0.295,0.267 0.442,0.402 0.102,0.093 0.202,0.186 0.305,0.278 0.153,0.137 0.305,0.268 0.458,0.402 0.214,0.187 0.427,0.378 0.641,0.561 0.728,0.623 1.461,1.241 2.214,1.835 0.096,0.075 0.192,0.146 0.288,0.217 0.095,0.071 0.191,0.143 0.286,0.218 0.064,-0.129 0.132,-0.252 0.197,-0.378 0.338,-0.647 0.698,-1.247 0.992,-1.706 0.098,-0.154 0.188,-0.291 0.267,-0.41 0.07,-0.102 0.152,-0.193 0.24,-0.274 0.003,-0.002 0.006,-0.006 0.009,-0.009 0.016,-0.014 0.037,-0.023 0.054,-0.038 0.27,-0.22 0.604,-0.346 0.953,-0.346 0.049,0 0.1,0.014 0.15,0.019 0.075,0.008 0.151,0.009 0.225,0.028 0.254,0.066 0.888,0.237 1.748,0.497 0.44,0.133 0.929,0.287 1.478,0.469 0.356,0.119 0.735,0.251 1.126,0.391 0.618,0.22 1.278,0.475 1.95,0.746 0.787,0.317 1.598,0.669 2.404,1.053 v 0 c 2.417,1.152 4.785,2.6 6.305,4.329 v -0.001 c 0.059,-2.497 0.138,-5.007 0.27,-7.556 0,-0.012 0,-0.023 10e-4,-0.035 -0.213,-0.316 -0.454,-0.631 -0.725,-0.946 -0.272,-0.316 -0.575,-0.632 -0.914,-0.953 -0.509,-0.483 -1.099,-0.977 -1.786,-1.495 -0.229,-0.172 -0.469,-0.348 -0.72,-0.526 -1.19,-0.844 -2.492,-1.673 -3.848,-2.533 -0.977,-0.622 -1.986,-1.264 -3.007,-1.945 -0.805,-0.537 -1.617,-1.106 -2.425,-1.699 -1.742,-1.278 -3.467,-2.698 -5.069,-4.361 -0.01,-0.011 -0.021,-0.02 -0.03,-0.029 -0.471,-0.491 -0.931,-1.001 -1.378,-1.535 -4.74,-5.658 -6.939,-12.696 -6.72,-21.511 0.126,-5.085 0.345,-9.199 0.853,-12.711 0.491,-3.397 1.252,-6.229 2.467,-8.817 -0.707,-1.045 -1.376,-2.105 -2.025,-3.171 -1.125,-1.847 -2.171,-3.719 -3.112,-5.615 v -0.001 c -0.3,0.553 -0.618,1.119 -0.954,1.701 -0.335,0.582 -0.689,1.177 -1.061,1.787 -0.744,1.219 -1.56,2.496 -2.447,3.828 -1.772,2.664 -3.829,5.55 -6.163,8.648 v 1.48 22.739 c 0,3.6 1.36,7.557 3.533,11.504 m 0.445,48.425 c 1.06,0 2.152,0.081 3.004,0.165 0.196,0.019 0.375,0.038 0.542,0.057 0.269,0.03 0.501,0.059 0.673,0.081 0.22,0.029 0.423,0.108 0.6,0.222 0.185,0.119 0.342,0.275 0.462,0.46 0.103,0.158 0.187,0.33 0.226,0.522 0.017,0.084 0.093,0.488 0.188,1.105 0.394,2.536 1.133,8.899 -0.428,13.654 -0.223,0.68 -0.493,1.326 -0.818,1.924 0.597,-0.249 1.199,-0.588 1.796,-0.999 0.408,-0.282 0.813,-0.597 1.21,-0.952 0.042,-0.037 0.083,-0.068 0.124,-0.106 0.505,-0.463 0.995,-0.985 1.464,-1.567 2.349,-2.923 4.124,-7.334 4.124,-13.103 v -28.612 c -4.031,-3.258 -7.738,-6.939 -10.864,-10.755 -0.714,-0.87 -1.385,-1.748 -2.035,-2.629 -0.3,-0.405 -0.604,-0.811 -0.889,-1.217 v 41.783 c 0.211,-0.008 0.403,-0.033 0.621,-0.033 m 2.659,3.169 c -1.243,-0.118 -2.411,-0.159 -3.28,-0.13 v 15.769 h 0.168 c 0.326,-0.118 0.63,-0.273 0.911,-0.469 0.281,-0.196 0.539,-0.433 0.773,-0.717 0.816,-0.992 1.324,-2.41 1.621,-4.003 0.119,-0.638 0.204,-1.304 0.261,-1.982 0.255,-3.052 -0.055,-6.356 -0.382,-8.462 -0.024,-0.003 -0.047,-0.004 -0.072,-0.006 m -20.186,-42.219 c 0.263,-1.137 0.411,-2.397 0.474,-3.684 0.018,-0.373 0.031,-0.747 0.036,-1.121 0.01,-0.705 -0.002,-1.409 -0.029,-2.093 -0.068,-1.71 -0.232,-3.302 -0.404,-4.511 -1.025,-0.105 -1.988,-0.146 -2.731,-0.131 v 15.73 h 0.071 c 0.422,-0.2 0.798,-0.487 1.134,-0.887 0.683,-0.817 1.144,-1.976 1.449,-3.303 m 61.637,24.053 v 0 c 3.422,-2.436 6.858,-5.54 10.235,-9.105 1.148,-1.212 2.29,-2.477 3.422,-3.788 -0.127,-0.371 -0.47,-0.761 -0.92,-1.144 -0.771,-0.658 -1.882,-1.285 -2.953,-1.755 -0.425,-0.186 -0.844,-0.355 -1.225,-0.481 -0.13,0.041 -0.297,0.113 -0.493,0.215 -0.392,0.205 -0.904,0.53 -1.484,0.963 -0.581,0.433 -1.23,0.974 -1.901,1.612 -1.004,0.956 -2.054,2.128 -2.982,3.476 -1.186,1.722 -2.418,4.16 -2.657,6.912 -0.054,0.625 -0.073,1.26 -0.011,1.912 0.123,0.16 0.25,0.303 0.375,0.457 0.198,0.246 0.395,0.5 0.594,0.726 m -2.601,-75.768 c 0.762,2.322 1.33,4.561 1.761,6.734 0.558,2.808 0.88,5.498 1.009,8.058 4.915,-6.044 10.151,-9.848 14.23,-12.179 0.841,-0.48 1.65,-0.921 2.378,-1.28 -6.448,-8.716 -11.942,-24.111 -10.811,-38.854 0.047,-0.614 0.106,-1.227 0.177,-1.838 0.08,-0.704 0.182,-1.404 0.296,-2.102 0.182,-1.123 0.401,-2.238 0.67,-3.342 0.583,-2.386 1.377,-4.721 2.406,-6.97 0.09,-0.196 0.225,-0.352 0.376,-0.487 0.277,-0.247 0.628,-0.396 0.997,-0.396 0.048,0 0.094,0.026 0.142,0.03 0.164,0.017 0.33,0.035 0.489,0.107 0.757,0.348 1.091,1.245 0.742,2.003 -0.219,0.48 -0.409,0.971 -0.594,1.464 -0.104,0.279 -0.208,0.56 -0.312,0.839 -3.938,10.602 -2.679,23.137 0.75,33.458 0.49,1.475 1.023,2.904 1.593,4.276 0.38,0.915 0.775,1.804 1.183,2.665 1.226,2.581 2.57,4.899 3.962,6.861 0.143,0.201 0.287,0.389 0.431,0.578 0.226,0.293 0.451,0.579 0.678,0.862 0.145,0.053 0.302,0.07 0.433,0.16 0.127,0.089 0.24,0.193 0.338,0.307 0.003,0.002 0.007,0.004 0.009,0.008 0.303,0.351 0.465,0.81 0.443,1.285 -0.001,0.011 -0.001,0.021 -0.002,0.031 -0.024,0.437 -0.051,0.875 -0.09,1.319 -0.532,6.403 -2.694,13.345 -5.657,20.206 -4.252,9.844 -10.167,19.521 -15.408,27.191 -0.065,0.096 -0.121,0.197 -0.183,0.294 -0.126,0.194 -0.253,0.385 -0.368,0.59 l -1.228,2.183 c -0.655,1.327 -1.261,2.811 -1.719,4.461 -0.317,1.136 -0.575,2.337 -0.685,3.67 -0.033,0.83 -0.033,1.637 -0.058,2.46 0.003,0.077 0.013,0.159 0.02,0.241 0.005,0.043 0.009,0.086 0.011,0.129 0.114,0.972 0.233,1.944 0.359,2.914 0.084,0.463 0.147,0.912 0.261,1.396 0.024,0.103 0.069,0.191 0.094,0.293 1.256,-4.345 4.244,-7.742 5.937,-9.396 0.241,-0.236 0.457,-0.436 0.637,-0.599 0.737,-0.664 2.124,-1.826 3.507,-2.543 0.197,-0.102 0.395,-0.195 0.59,-0.276 0.224,-0.093 0.444,-0.17 0.66,-0.228 0.246,-0.066 0.484,-0.106 0.712,-0.115 0.031,-0.001 0.064,-0.012 0.095,-0.012 0.049,0 0.091,0.016 0.139,0.019 0.142,0.008 0.286,0.017 0.417,0.057 0.08,0.025 0.728,0.23 1.613,0.61 0.295,0.127 0.617,0.272 0.952,0.437 0.168,0.083 0.338,0.17 0.511,0.263 1.212,0.645 2.52,1.525 3.396,2.631 1.056,-1.29 2.101,-2.619 3.131,-3.981 3.093,-4.086 6.064,-8.473 8.849,-13.003 4.273,-6.947 8.106,-14.234 11.234,-21.317 0.447,-1.012 0.879,-2.02 1.297,-3.022 0.873,-2.095 1.66,-4.155 2.395,-6.185 0.314,-0.866 0.614,-1.724 0.901,-2.574 1.096,-3.257 2.011,-6.401 2.676,-9.345 2.036,-9.022 2.15,-20.256 1.438,-32.323 -0.158,-2.683 -0.357,-5.406 -0.585,-8.155 -0.57,-6.872 -1.319,-13.907 -2.061,-20.868 -0.198,-1.857 -0.393,-3.692 -0.584,-5.515 -0.131,-1.252 -0.258,-2.492 -0.382,-3.721 -0.123,-1.229 -0.244,-2.448 -0.361,-3.66 -0.447,-4.627 -0.832,-9.109 -1.079,-13.345 -0.153,-2.618 -0.25,-5.144 -0.287,-7.573 v -0.003 c -0.117,-0.034 -0.234,-0.068 -0.351,-0.102 -0.503,-0.148 -1.006,-0.298 -1.512,-0.439 -0.445,-0.125 -0.893,-0.243 -1.341,-0.365 -0.746,-0.2 -1.495,-0.395 -2.248,-0.583 -0.572,-0.142 -1.145,-0.286 -1.72,-0.42 -0.432,-0.101 -0.867,-0.195 -1.3,-0.291 -0.51,-0.114 -1.02,-0.228 -1.532,-0.335 -0.437,-0.091 -0.875,-0.179 -1.313,-0.266 -0.521,-0.104 -1.044,-0.204 -1.568,-0.301 -0.425,-0.079 -0.85,-0.157 -1.277,-0.231 -0.568,-0.099 -1.138,-0.193 -1.709,-0.284 -0.383,-0.062 -0.766,-0.125 -1.151,-0.183 -0.789,-0.119 -1.58,-0.23 -2.373,-0.333 -0.188,-0.025 -0.375,-0.053 -0.564,-0.077 -0.933,-0.118 -1.869,-0.225 -2.808,-0.321 -0.333,-0.036 -0.668,-0.064 -1.002,-0.096 -0.651,-0.063 -1.303,-0.122 -1.958,-0.175 -0.375,-0.029 -0.751,-0.057 -1.127,-0.083 -0.629,-0.045 -1.259,-0.085 -1.891,-0.12 -0.372,-0.022 -0.745,-0.042 -1.118,-0.06 -0.675,-0.031 -1.352,-0.055 -2.03,-0.077 -0.322,-0.01 -0.643,-0.023 -0.966,-0.03 -0.997,-0.024 -1.996,-0.038 -2.999,-0.038 -1.003,0 -2.002,0.014 -3,0.038 -0.322,0.007 -0.643,0.02 -0.965,0.03 -0.678,0.022 -1.355,0.046 -2.03,0.077 -0.374,0.018 -0.746,0.038 -1.119,0.06 -0.631,0.035 -1.261,0.075 -1.89,0.12 -0.376,0.026 -0.752,0.054 -1.128,0.083 -0.654,0.053 -1.306,0.112 -1.957,0.175 -0.334,0.032 -0.669,0.06 -1.002,0.096 -0.939,0.096 -1.876,0.203 -2.808,0.321 -0.189,0.024 -0.376,0.052 -0.564,0.077 -0.793,0.103 -1.585,0.214 -2.373,0.333 -0.163,0.024 -0.325,0.052 -0.488,0.077 v 8.713 c 0,1.497 -0.092,2.983 -0.272,4.454 -0.18,1.47 -0.448,2.922 -0.802,4.351 -0.176,0.715 -0.374,1.423 -0.592,2.124 -0.534,1.716 -1.207,3.383 -1.982,5.002 -0.491,1.026 -1.016,2.038 -1.599,3.017 -0.753,1.262 -1.58,2.481 -2.479,3.651 -2.248,2.923 -4.942,5.538 -8.024,7.729 -2.447,1.739 -4.963,3.651 -7.475,5.723 -0.617,0.51 -1.233,1.025 -1.848,1.554 -11.826,10.166 -23.097,23.962 -25.729,40.848 -0.283,1.809 -0.466,3.653 -0.539,5.533 -0.025,0.626 -0.038,1.257 -0.038,1.891 v 40.415 c 0.14,-0.004 0.263,-0.024 0.403,-0.024 0.804,0 1.62,0.057 2.343,0.128 0.595,0.058 1.132,0.125 1.516,0.181 0.642,0.093 1.156,0.587 1.272,1.228 0.008,0.044 0.017,0.097 0.028,0.162 0.018,0.104 0.04,0.236 0.065,0.393 0.124,0.784 0.321,2.189 0.449,3.904 0.05,0.685 0.091,1.422 0.11,2.186 0.012,0.472 0.017,0.953 0.011,1.443 -0.008,0.711 -0.036,1.436 -0.092,2.161 -0.084,1.088 -0.229,2.175 -0.457,3.214 -0.209,0.951 -0.479,1.867 -0.846,2.699 v 0.001 c 0.585,-0.332 1.168,-0.75 1.74,-1.236 0.314,-0.266 0.625,-0.548 0.93,-0.861 0.285,-0.294 0.565,-0.607 0.837,-0.94 0.872,-1.068 1.667,-2.337 2.327,-3.802 0.329,-0.733 0.625,-1.513 0.88,-2.342 0.254,-0.829 0.466,-1.706 0.63,-2.63 0.082,-0.462 0.152,-0.935 0.208,-1.421 0.113,-0.97 0.173,-1.987 0.173,-3.049 v -7.724 -24.835 c 0,-0.237 0.06,-0.465 0.148,-0.683 0.026,-0.066 0.065,-0.126 0.099,-0.187 0.043,-0.08 0.072,-0.167 0.126,-0.239 2.652,-3.504 4.918,-6.705 6.831,-9.621 0.415,-0.632 0.813,-1.251 1.194,-1.855 1.756,-2.795 3.157,-5.301 4.15,-7.47 -0.198,-0.482 -0.382,-0.961 -0.568,-1.439 -0.361,-0.923 -0.706,-1.84 -1,-2.731 -0.039,-0.125 -0.052,-0.25 -0.061,-0.376 -0.002,-0.033 -0.016,-0.067 -0.016,-0.1 0,-0.554 0.32,-1.06 0.823,-1.322 0.072,-0.038 0.137,-0.085 0.216,-0.112 0.157,-0.052 0.317,-0.076 0.473,-0.076 0.475,0 0.927,0.227 1.212,0.607 0.012,0.017 0.018,0.041 0.031,0.059 0.077,0.113 0.148,0.233 0.192,0.371 0.437,1.319 0.986,2.702 1.556,4.088 0.276,0.191 0.507,0.451 0.647,0.772 0.274,0.638 0.582,1.27 0.878,1.904 1.275,2.726 2.746,5.42 4.413,8.046 0.555,0.875 1.132,1.743 1.732,2.601 0.1,0.145 0.176,0.301 0.229,0.462 0.053,0.162 0.084,0.33 0.091,0.499 0.562,0.787 1.138,1.561 1.726,2.321 1.215,1.573 2.484,3.085 3.799,4.537 0.594,0.655 1.195,1.299 1.807,1.928 0.12,0.032 0.222,0.1 0.333,0.151 0.321,0.145 0.612,0.344 0.795,0.655 0.29,0.486 0.337,1.077 0.133,1.603 -3.567,9.191 -5.149,21.356 -5.847,30.23 0.403,0.453 0.825,0.878 1.251,1.3 0.176,0.174 0.353,0.345 0.526,0.522 0.176,0.178 0.347,0.362 0.531,0.527 0.385,0.345 0.786,0.66 1.185,0.98 0.158,0.126 0.311,0.262 0.469,0.388 0.121,0.095 0.24,0.191 0.36,0.29 0.238,0.196 0.474,0.397 0.719,0.58 0.613,0.457 1.229,0.878 1.848,1.301 0.324,0.221 0.644,0.46 0.968,0.674 0.922,0.611 1.836,1.196 2.723,1.758 0.072,0.047 0.143,0.092 0.216,0.139 0.405,0.258 0.807,0.514 1.201,0.768 0.203,-1.72 0.46,-3.365 0.745,-4.973 0.669,-3.785 1.54,-7.282 2.586,-10.482 0.745,-2.278 1.573,-4.415 2.466,-6.419 0.892,-2.004 1.849,-3.876 2.852,-5.625 0.456,-5.771 0.201,-12.224 -2.009,-19.526 -0.255,-0.842 -0.546,-1.699 -0.855,-2.564 -0.908,-2.544 -2.048,-5.183 -3.488,-7.933 -0.242,-0.463 -0.327,-0.966 -0.273,-1.447 0.091,-0.804 0.565,-1.549 1.335,-1.953 0.093,-0.05 0.191,-0.073 0.287,-0.109 0.289,-0.108 0.584,-0.178 0.879,-0.178 0.227,0 0.453,0.03 0.669,0.089 0.434,0.12 0.835,0.353 1.154,0.687 0.16,0.167 0.299,0.358 0.411,0.573 1.215,2.32 2.24,4.575 3.098,6.768 0.429,1.095 0.817,2.177 1.167,3.241 m -0.782,49.505 c 0.089,-0.143 0.177,-0.286 0.268,-0.429 0.031,-0.051 0.059,-0.102 0.094,-0.152 0.855,-1.252 1.732,-2.571 2.615,-3.923 7.647,-11.716 15.883,-26.841 17.612,-39.765 -1.352,0.728 -2.883,1.657 -4.509,2.807 -0.301,0.213 -0.606,0.434 -0.913,0.664 -0.776,0.577 -1.569,1.206 -2.373,1.89 -0.858,0.73 -1.727,1.515 -2.601,2.375 -0.806,0.794 -1.614,1.648 -2.417,2.559 -0.623,0.707 -1.244,1.453 -1.857,2.235 -0.127,0.161 -0.253,0.323 -0.38,0.487 -0.681,0.891 -1.355,1.822 -2.013,2.81 -0.249,4.669 -0.959,8.864 -1.596,12.568 -0.129,0.744 -0.247,1.453 -0.364,2.159 -0.182,1.099 -0.349,2.167 -0.474,3.175 -0.241,1.949 -0.452,3.879 -0.646,5.798 -0.16,1.589 -0.311,3.171 -0.446,4.742 m -6.41,119.562 -0.159,-0.18 -0.316,0.252 z m -17.251,10.627 -2.963,7.783 c 2.025,0.396 4.097,0.265 6.091,-0.388 0.319,-3.994 2.047,-7.694 4.925,-10.501 l 4.854,-4.733 c -5.485,-0.644 -10.871,2.497 -12.907,7.839 m 10.331,-12.124 c -3.844,-1.863 -8.547,-1.671 -12.243,0.807 l -6.92,4.63 c 1.546,1.618 3.51,2.784 5.689,3.37 2.681,-5.092 7.868,-8.389 13.474,-8.807 m 8.791,13.338 c 0.03,-2.549 -0.721,-5.017 -2.14,-7.088 l -5.96,5.813 c -4.318,4.213 -4.899,10.872 -1.569,15.735 l 5.958,-5.812 c 2.352,-2.297 3.671,-5.368 3.711,-8.648 m 5.143,-9.813 c 4.828,3.027 7.82,8.398 7.696,14.307 2.073,0.447 4.222,0.349 6.235,-0.282 l -3.821,-7.396 c -1.507,-2.919 -4.061,-5.075 -7.19,-6.072 -0.959,-0.306 -1.938,-0.492 -2.92,-0.557 m -1.955,3.821 c 0.729,1.913 1.09,3.953 1.065,6.043 -0.043,3.419 -1.103,6.646 -3.075,9.395 0.072,0.099 0.145,0.197 0.222,0.293 1.563,1.997 3.697,3.45 6.107,4.183 L -77.973,7.8 c 0.564,-4.629 -1.613,-9.116 -5.324,-11.653 m -14.708,-271.568 c -0.512,0.107 -1.022,0.22 -1.532,0.335 -0.433,0.096 -0.868,0.19 -1.3,0.292 -0.577,0.134 -1.15,0.278 -1.724,0.42 -0.749,0.187 -1.495,0.381 -2.239,0.582 -0.45,0.121 -0.9,0.239 -1.347,0.365 -0.505,0.141 -1.007,0.291 -1.509,0.438 -0.395,0.116 -0.791,0.234 -1.185,0.354 -0.521,0.159 -1.04,0.322 -1.558,0.488 -0.36,0.115 -0.719,0.232 -1.078,0.351 -0.541,0.178 -1.082,0.358 -1.619,0.544 -0.302,0.104 -0.603,0.212 -0.904,0.318 -2.103,0.745 -4.182,1.541 -6.233,2.392 -0.101,0.042 -0.204,0.083 -0.305,0.125 -0.639,0.268 -1.275,0.543 -1.909,0.821 -0.196,0.086 -0.393,0.171 -0.59,0.259 -0.625,0.277 -1.247,0.56 -1.867,0.847 -0.18,0.084 -0.36,0.168 -0.54,0.253 -0.649,0.305 -1.296,0.612 -1.939,0.928 -0.074,0.037 -0.147,0.074 -0.221,0.11 -2.944,1.452 -5.824,3.015 -8.634,4.685 -0.05,0.03 -0.1,0.059 -0.15,0.09 -0.684,0.407 -1.363,0.821 -2.039,1.241 -0.048,0.03 -0.096,0.06 -0.144,0.091 -3.54,2.209 -6.963,4.588 -10.257,7.127 -29.878,23.029 -49.166,59.157 -49.166,99.711 v 127.905 c 0,69.39 56.453,125.843 125.843,125.843 7.692,0 15.224,-0.698 22.539,-2.026 -4.539,-11.293 -2.412,-24.443 4.953,-35.437 -12.115,4.441 -27.417,4.947 -45.721,1.453 -0.747,-0.143 -1.355,-0.685 -1.582,-1.412 -0.227,-0.725 -0.037,-1.517 0.497,-2.06 9.177,-9.348 23.7,-11.726 36.11,-11.726 7.66,0 14.509,0.905 18.806,1.64 -13.379,-23.667 -36.702,-69.736 -42.986,-93.13 -0.028,1.559 -0.098,3.117 -0.318,4.67 -0.434,6.736 -2.934,17.315 -5.455,24.918 2.104,-0.419 4.23,-0.445 6.337,-0.027 0.62,0.122 1.242,0.282 1.841,0.475 4.213,1.341 7.649,4.243 9.677,8.171 l 4.885,9.451 c 0.257,0.501 0.306,1.074 0.135,1.62 -0.17,0.53 -0.548,0.981 -1.04,1.238 -0.003,0.002 -0.008,0.004 -0.011,0.006 -3.276,1.692 -6.977,2.229 -10.578,1.56 l -0.974,7.995 c -0.14,1.162 -1.203,1.998 -2.369,1.852 -4.268,-0.521 -8.09,-2.627 -10.799,-5.937 l -6.63,6.466 c -0.403,0.394 -0.954,0.615 -1.54,0.606 -0.562,-0.017 -1.084,-0.244 -1.471,-0.64 -2.289,-2.347 -3.824,-5.332 -4.417,-8.54 -3.261,0.815 -6.71,0.618 -9.878,-0.586 -1.093,-0.42 -1.642,-1.651 -1.225,-2.744 l 2.967,-7.792 c -3.644,-1.107 -6.767,-3.416 -8.913,-6.621 -0.315,-0.473 -0.428,-1.039 -0.317,-1.596 0.111,-0.556 0.432,-1.038 0.902,-1.352 l 8.839,-5.916 c 0.508,-0.339 1.029,-0.65 1.563,-0.929 3.322,-1.734 7.114,-2.285 10.852,-1.544 3.049,0.602 5.847,2.067 8.095,4.176 2.505,-6.452 3.82,-11.944 5.132,-22.44 1.375,-8.252 1.135,-9.85 1.234,-13.676 -0.001,-0.209 -0.019,-0.417 -0.023,-0.626 -3.741,11.508 -11.776,21.02 -23.466,27.025 -15.26,7.84 -27.028,9.082 -40.67,9.572 -1.923,0.07 -3.882,0.124 -5.893,0.18 -0.834,0.022 -1.702,0.049 -2.557,0.074 -1.569,0.139 -3.152,0.269 -4.759,0.38 -0.287,0.01 -0.542,-0.072 -0.775,-0.189 -0.594,0.024 -1.164,0.04 -1.771,0.068 -0.675,0.064 -1.258,-0.367 -1.486,-0.986 -0.227,-0.616 -0.029,-1.311 0.489,-1.715 3.529,-2.755 7.408,-5.731 11.548,-8.792 10.065,-7.44 21.722,-15.391 33.986,-21.955 15.244,-8.155 23.418,-18.903 32.027,-32.031 -1.007,-8.917 -1.561,-18.281 -1.597,-28.052 -0.392,0.031 -0.813,0.036 -1.25,0.025 v 9.23 c 0,12.576 -7.724,21.023 -14.936,21.023 h -3.525 c -0.206,0 -0.395,-0.055 -0.58,-0.117 -2.846,6.055 -7.784,9.709 -12.515,9.709 h -4.369 c -1.015,0 -1.838,-0.824 -1.838,-1.839 v -68.515 c -10e-4,-0.003 -0.003,-0.005 -0.004,-0.008 -1.525,10.144 -8.265,16.694 -14.612,16.694 h -3.104 c -1.016,0 -1.839,-0.824 -1.839,-1.84 v -60.994 c 0,-26.546 20.217,-46.49 37.174,-58.547 4.257,-3.027 7.682,-6.952 10.108,-11.399 2.643,-4.844 4.098,-10.307 4.098,-15.931 v -8.087 c -0.516,0.096 -1.029,0.194 -1.542,0.296 -0.438,0.087 -0.876,0.175 -1.313,0.266 m 57.032,332.559 c -9.133,-1.158 -30.924,-2.913 -43.687,4.363 18.535,2.29 33.2,0.825 43.687,-4.363 m 8.571,52.357 c 4.967,2.989 10.973,4.543 17.33,4.543 7.121,0 14.677,-1.946 21.697,-5.998 13.791,-7.963 21.57,-21.79 20.707,-34.472 -0.27,-3.952 -1.369,-7.794 -3.399,-11.31 -0.622,-1.078 -1.322,-2.089 -2.077,-3.047 -9.612,-12.19 -29.451,-14.537 -46.225,-4.853 -0.595,0.344 -1.179,0.699 -1.751,1.065 -0.011,0.007 -0.022,0.015 -0.034,0.022 -0.552,0.354 -1.094,0.718 -1.625,1.09 -0.011,0.007 -0.02,0.014 -0.03,0.021 0.474,0.823 0.924,1.603 1.334,2.305 2.753,1.37 8.246,-0.003 8.246,-0.003 -5.501,2.751 -2.751,9.628 -2.751,9.628 0,0 -2.918,-1.764 -5.905,-1.764 -1.607,0 -3.228,0.526 -4.431,2.095 0.771,-1.333 1.866,-3.722 1.337,-5.833 h -0.015 c -0.578,-0.899 -1.238,-1.968 -1.956,-3.155 v 10e-4 c -0.244,0.217 -0.479,0.44 -0.716,0.661 -0.177,0.165 -0.356,0.328 -0.53,0.496 -0.229,0.221 -0.453,0.445 -0.677,0.67 -0.172,0.174 -0.344,0.347 -0.513,0.523 -0.218,0.226 -0.432,0.455 -0.643,0.685 -0.165,0.178 -0.326,0.358 -0.487,0.538 -0.207,0.233 -0.413,0.466 -0.614,0.702 -0.155,0.182 -0.305,0.366 -0.456,0.55 -0.198,0.24 -0.396,0.479 -0.587,0.722 -0.136,0.173 -0.265,0.349 -0.398,0.523 -0.357,0.469 -0.702,0.943 -1.035,1.423 -0.131,0.188 -0.266,0.376 -0.394,0.566 -0.164,0.245 -0.32,0.493 -0.479,0.74 -0.13,0.204 -0.261,0.409 -0.387,0.614 -0.151,0.245 -0.296,0.492 -0.44,0.739 -0.125,0.212 -0.247,0.426 -0.366,0.639 -0.138,0.246 -0.273,0.493 -0.405,0.74 -0.116,0.22 -0.228,0.44 -0.34,0.661 -0.124,0.245 -0.248,0.49 -0.366,0.736 -0.113,0.236 -0.219,0.474 -0.327,0.711 -0.106,0.234 -0.216,0.467 -0.316,0.701 -0.19,0.444 -0.37,0.89 -0.541,1.336 -0.085,0.223 -0.161,0.447 -0.241,0.67 -0.093,0.26 -0.188,0.52 -0.274,0.781 -0.077,0.231 -0.148,0.462 -0.22,0.694 -0.078,0.256 -0.156,0.511 -0.229,0.767 -0.066,0.233 -0.129,0.466 -0.189,0.699 -0.068,0.259 -0.131,0.52 -0.193,0.78 -0.053,0.228 -0.106,0.455 -0.155,0.683 -0.059,0.278 -0.111,0.557 -0.162,0.836 -0.039,0.209 -0.081,0.418 -0.115,0.627 -0.063,0.385 -0.116,0.77 -0.165,1.154 -0.024,0.193 -0.046,0.386 -0.067,0.579 -0.041,0.385 -0.077,0.769 -0.103,1.153 -0.013,0.192 -0.019,0.384 -0.028,0.575 -0.015,0.3 -0.028,0.599 -0.033,0.897 -0.004,0.204 -0.003,0.409 -0.002,0.613 10e-4,0.288 0.006,0.576 0.016,0.864 0.007,0.203 0.015,0.406 0.026,0.608 0.017,0.296 0.04,0.592 0.066,0.887 0.016,0.188 0.031,0.377 0.052,0.564 0.037,0.346 0.085,0.689 0.135,1.032 0.02,0.134 0.035,0.269 0.056,0.403 0.078,0.471 0.167,0.941 0.27,1.408 0.028,0.128 0.063,0.255 0.093,0.382 0.08,0.343 0.165,0.686 0.26,1.026 0.047,0.172 0.101,0.343 0.152,0.514 0.09,0.296 0.182,0.59 0.282,0.884 0.061,0.179 0.125,0.357 0.19,0.535 0.105,0.287 0.215,0.573 0.331,0.857 0.07,0.172 0.14,0.345 0.214,0.516 0.076,0.176 0.155,0.351 0.235,0.527 l 0.006,-0.002 c 0.058,0.127 0.114,0.253 0.174,0.379 0.069,0.144 0.134,0.29 0.207,0.433 0.221,0.44 0.452,0.877 0.701,1.307 2.27,3.931 5.467,7.066 9.275,9.357 M 67.444,-24.349 c 0,35.016 -12.894,67.02 -34.192,91.526 4.179,16.745 -4.961,36.295 -23.189,46.818 -17.671,10.204 -38.417,8.764 -50.977,-2.26 -10.044,2.296 -20.498,3.512 -31.237,3.512 -77.097,0 -139.596,-62.499 -139.596,-139.596 v -127.905 c 0,-39.065 16.053,-74.374 41.913,-99.711 0.004,-0.005 0.009,-0.009 0.014,-0.014 0.779,-0.764 1.569,-1.519 2.366,-2.264 0.006,-0.006 0.012,-0.011 0.018,-0.017 0.799,-0.747 1.607,-1.485 2.425,-2.213 0.004,-0.005 0.009,-0.009 0.014,-0.013 0.817,-0.728 1.643,-1.448 2.477,-2.157 0.007,-0.006 0.013,-0.011 0.019,-0.016 0.833,-0.708 1.674,-1.406 2.523,-2.094 0.009,-0.007 0.018,-0.015 0.027,-0.022 0.847,-0.686 1.702,-1.363 2.565,-2.029 0.012,-0.01 0.024,-0.019 0.036,-0.028 0.858,-0.663 1.725,-1.315 2.6,-1.959 0.021,-0.015 0.042,-0.03 0.063,-0.045 0.865,-0.636 1.738,-1.262 2.619,-1.878 0.031,-0.023 0.064,-0.044 0.096,-0.067 0.871,-0.608 1.749,-1.207 2.634,-1.796 l 0.129,-0.085 c 0.876,-0.581 1.758,-1.152 2.647,-1.713 0.056,-0.036 0.111,-0.07 0.166,-0.105 0.879,-0.553 1.763,-1.097 2.655,-1.63 0.069,-0.042 0.139,-0.083 0.209,-0.124 0.878,-0.524 1.762,-1.039 2.654,-1.545 0.086,-0.049 0.174,-0.096 0.262,-0.146 0.876,-0.494 1.757,-0.981 2.645,-1.456 0.104,-0.056 0.209,-0.11 0.314,-0.165 0.873,-0.466 1.751,-0.923 2.636,-1.371 0.123,-0.062 0.247,-0.122 0.37,-0.184 0.868,-0.435 1.74,-0.863 2.618,-1.281 0.147,-0.071 0.296,-0.138 0.443,-0.207 0.858,-0.405 1.72,-0.803 2.588,-1.191 0.169,-0.076 0.341,-0.148 0.511,-0.223 0.849,-0.375 1.7,-0.746 2.558,-1.103 0.196,-0.082 0.394,-0.161 0.591,-0.242 0.835,-0.345 1.673,-0.685 2.516,-1.014 0.224,-0.087 0.45,-0.17 0.674,-0.256 0.822,-0.315 1.646,-0.628 2.476,-0.927 0.247,-0.09 0.496,-0.174 0.743,-0.262 0.81,-0.289 1.623,-0.574 2.44,-0.848 0.277,-0.093 0.557,-0.179 0.834,-0.271 0.793,-0.26 1.587,-0.518 2.386,-0.764 0.306,-0.094 0.615,-0.182 0.922,-0.274 0.777,-0.234 1.555,-0.466 2.337,-0.686 0.332,-0.093 0.667,-0.18 1.001,-0.27 0.761,-0.208 1.521,-0.416 2.287,-0.611 0.365,-0.094 0.733,-0.178 1.1,-0.268 0.74,-0.183 1.481,-0.366 2.226,-0.536 0.392,-0.09 0.788,-0.171 1.182,-0.257 0.723,-0.159 1.446,-0.321 2.174,-0.468 0.425,-0.086 0.855,-0.163 1.282,-0.245 0.7,-0.136 1.4,-0.274 2.105,-0.399 0.464,-0.082 0.931,-0.153 1.397,-0.231 0.672,-0.112 1.343,-0.228 2.02,-0.33 0.502,-0.076 1.008,-0.141 1.512,-0.212 0.645,-0.09 1.289,-0.186 1.936,-0.268 0.538,-0.067 1.08,-0.123 1.619,-0.184 0.619,-0.071 1.236,-0.147 1.858,-0.21 0.58,-0.059 1.164,-0.104 1.746,-0.154 0.586,-0.052 1.169,-0.111 1.757,-0.155 0.651,-0.049 1.306,-0.084 1.959,-0.124 0.523,-0.032 1.044,-0.072 1.568,-0.098 0.779,-0.039 1.561,-0.063 2.342,-0.089 0.405,-0.014 0.807,-0.035 1.212,-0.045 1.19,-0.03 2.383,-0.046 3.58,-0.046 1.196,0 2.39,0.016 3.579,0.046 0.405,0.01 0.808,0.031 1.213,0.045 0.781,0.026 1.564,0.05 2.342,0.089 0.524,0.026 1.045,0.066 1.567,0.098 0.654,0.04 1.309,0.075 1.96,0.124 0.588,0.044 1.171,0.103 1.757,0.155 0.582,0.05 1.166,0.095 1.746,0.154 0.621,0.063 1.238,0.139 1.858,0.21 0.539,0.061 1.081,0.117 1.619,0.184 0.647,0.082 1.291,0.178 1.935,0.268 0.505,0.071 1.011,0.136 1.513,0.212 0.676,0.102 1.348,0.218 2.02,0.33 0.465,0.078 0.933,0.149 1.397,0.231 0.705,0.125 1.406,0.263 2.107,0.399 0.427,0.082 0.855,0.159 1.279,0.245 0.729,0.147 1.453,0.309 2.177,0.468 0.393,0.086 0.788,0.167 1.18,0.257 0.746,0.17 1.487,0.353 2.229,0.536 0.365,0.09 0.732,0.174 1.096,0.267 0.767,0.197 1.528,0.404 2.289,0.612 0.333,0.09 0.668,0.177 1,0.27 0.782,0.221 1.559,0.452 2.336,0.686 0.307,0.092 0.617,0.18 0.923,0.274 0.8,0.246 1.594,0.505 2.388,0.765 0.277,0.091 0.555,0.177 0.83,0.269 0.82,0.275 1.634,0.561 2.446,0.85 0.246,0.088 0.493,0.171 0.738,0.26 0.831,0.301 1.657,0.614 2.481,0.93 0.223,0.085 0.447,0.167 0.668,0.254 0.844,0.328 1.681,0.669 2.516,1.014 0.198,0.081 0.397,0.16 0.594,0.242 0.858,0.358 1.71,0.729 2.559,1.104 0.169,0.074 0.34,0.146 0.508,0.222 0.868,0.388 1.731,0.786 2.589,1.191 0.148,0.069 0.296,0.136 0.443,0.207 0.879,0.418 1.752,0.847 2.621,1.283 0.122,0.061 0.245,0.12 0.366,0.182 0.884,0.447 1.761,0.904 2.635,1.369 0.105,0.056 0.211,0.111 0.317,0.168 0.887,0.475 1.768,0.961 2.644,1.455 0.087,0.05 0.175,0.097 0.262,0.146 0.892,0.506 1.777,1.022 2.656,1.546 0.069,0.041 0.138,0.081 0.206,0.122 0.892,0.534 1.777,1.078 2.655,1.631 0.056,0.035 0.112,0.069 0.167,0.105 0.89,0.561 1.774,1.134 2.651,1.715 0.041,0.028 0.082,0.055 0.123,0.081 0.887,0.591 1.767,1.191 2.639,1.8 0.031,0.022 0.061,0.042 0.091,0.064 0.881,0.615 1.754,1.242 2.619,1.877 0.022,0.016 0.044,0.033 0.067,0.048 0.873,0.643 1.739,1.295 2.597,1.957 0.012,0.01 0.025,0.019 0.037,0.029 0.864,0.667 1.719,1.344 2.566,2.03 0.009,0.007 0.017,0.014 0.025,0.02 0.85,0.689 1.693,1.388 2.526,2.097 0.005,0.004 0.01,0.008 0.015,0.013 0.835,0.71 1.661,1.429 2.479,2.158 0.005,0.004 0.01,0.008 0.014,0.013 0.817,0.728 1.625,1.466 2.425,2.213 0.006,0.006 0.012,0.011 0.018,0.017 0.797,0.745 1.586,1.5 2.366,2.264 0.004,0.005 0.009,0.009 0.014,0.014 25.86,25.337 41.912,60.646 41.912,99.711 z" /></g><g
           transform="translate(587.2739,697.7729)"
           id="g320"><path
             id="path322"
             style="fill:#FFFFFF;fill-opacity:1;fill-rule:nonzero;stroke:none"
             d="M 0,0 C -0.37,0.64 -0.666,1.043 -0.666,1.043 -0.465,0.647 -0.238,0.31 0,0" /></g><g
           transform="translate(347.769,697.1011)"
           id="g324"><path
             id="path326"
             style="fill:#FFFFFF;fill-opacity:1;fill-rule:nonzero;stroke:none"
             d="m 0,0 c -2.146,-7.371 1.149,-15.183 9.506,-17.616 8.359,-2.433 15.331,2.391 17.477,9.762 2.069,7.108 -0.701,12.554 -1.59,13.67 L 36.582,2.559 c 0.669,-1.622 2.77,-7.16 0.509,-14.926 -3.773,-12.965 -17.086,-20.441 -30.84,-16.436 -13.756,4.003 -20.976,17.454 -17.202,30.419 2.26,7.767 7.004,11.311 8.439,12.321 L 8.676,10.681 C 7.328,10.217 2.068,7.107 0,0" /></g><g
           transform="translate(390.0801,739.0801)"
           id="g328"><path
             id="path330"
             style="fill:#FFFFFF;fill-opacity:1;fill-rule:nonzero;stroke:none"
             d="M 0,0 -13.929,3.728 -5.542,-7.999 Z M 11.28,-2.978 1.21,-17.511 6.833,-25.406 -0.037,-35.321 -30.057,6.812 -22.485,17.74 27.519,4.45 20.648,-5.464 Z" /></g><g
           transform="translate(420.5859,765.8052)"
           id="g332"><path
             id="path334"
             style="fill:#FFFFFF;fill-opacity:1;fill-rule:nonzero;stroke:none"
             d="m 0,0 c 2.509,-3.173 5.689,-3.106 8.269,-1.066 2.42,1.914 2.56,3.947 1.624,5.131 -1.445,1.829 -4.126,1.02 -10.018,0.293 -13.218,-1.625 -17.136,0.346 -20.623,4.756 -4.846,6.133 -2.959,14.354 3.708,19.626 7.742,6.123 17.226,4.184 23.05,-3.185 l -9.139,-7.227 c -2.466,3.119 -5.012,3.465 -7.109,1.807 -1.451,-1.148 -2.093,-2.879 -1.03,-4.223 1.233,-1.559 2.946,-1.516 8.111,-0.753 11.515,1.677 18.023,1.404 22.488,-4.243 5.483,-6.937 2.407,-15.313 -4.258,-20.587 -9.356,-7.397 -19.279,-3.795 -24.212,2.443 z" /></g><g
           transform="translate(470.9639,798.8564)"
           id="g336"><path
             id="path338"
             style="fill:#FFFFFF;fill-opacity:1;fill-rule:nonzero;stroke:none"
             d="M 0,0 -9.462,10.881 -9.07,-3.531 Z m 7.687,-8.778 -16.479,-6.414 0.244,-9.689 -11.242,-4.377 -1.317,51.716 12.39,4.824 34.021,-38.985 -11.241,-4.377 z" /></g><g
           transform="translate(563.5894,826.1045)"
           id="g340"><path
             id="path342"
             style="fill:#FFFFFF;fill-opacity:1;fill-rule:nonzero;stroke:none"
             d="m 0,0 -10.965,0.004 -0.013,-37.707 -11.651,0.003 0.013,37.707 -10.967,0.004 0.004,10.969 33.583,-0.011 z" /></g><g
           transform="translate(595.7637,805.8496)"
           id="g344"><path
             id="path346"
             style="fill:#FFFFFF;fill-opacity:1;fill-rule:nonzero;stroke:none"
             d="M 0,0 -2.839,14.136 -9.63,1.418 Z m 2.336,-11.43 -17.496,2.576 -4.583,-8.541 -11.936,1.756 24.448,45.596 13.156,-1.936 10.274,-50.706 -11.935,1.757 z" /></g><g
           transform="translate(651.8818,775.3003)"
           id="g348"><path
             id="path350"
             style="fill:#FFFFFF;fill-opacity:1;fill-rule:nonzero;stroke:none"
             d="M 0,0 -4.867,-9.829 -33.126,4.155 -11.527,47.772 -1.083,42.604 -17.816,8.815 Z" /></g><g
           transform="translate(685.4785,747.2837)"
           id="g352"><path
             id="path354"
             style="fill:#FFFFFF;fill-opacity:1;fill-rule:nonzero;stroke:none"
             d="M 0,0 -7.298,-8.187 -30.835,12.795 1.548,49.124 10.247,41.369 -14.839,13.227 Z" /></g><g
           transform="translate(721.0908,744.0869)"
           id="g356"><path
             id="path358"
             style="fill:#FFFFFF;fill-opacity:1;fill-rule:nonzero;stroke:none"
             d="m 0,0 -6.487,-4.361 7.649,-11.375 -9.103,-6.119 -7.65,11.375 -6.6,-4.437 9.561,-14.218 -9.103,-6.12 -16.063,23.888 L 2.601,15.788 18.664,-8.101 9.561,-14.22 Z" /></g><g
           transform="translate(730.8789,697.9517)"
           id="g360"><path
             id="path362"
             style="fill:#FFFFFF;fill-opacity:1;fill-rule:nonzero;stroke:none"
             d="m 0,0 2.429,-7.498 c 1.182,-3.651 4.352,-5.651 8.135,-4.425 3.783,1.224 5.179,4.701 3.997,8.353 l -2.429,7.498 z m -8.661,-8.855 -1.774,5.477 -13.306,-4.308 -3.59,11.083 46.309,14.994 6.019,-18.582 c 2.914,-8.998 -0.539,-19.481 -10.844,-22.817 -6.587,-2.133 -12.662,-0.282 -16.92,3.742 l -12.675,-14.045 -4.034,12.455 z" /></g><g
           transform="translate(352.6909,396.2646)"
           id="g364"><path
             id="path366"
             style="fill:#FFFFFF;fill-opacity:1;fill-rule:nonzero;stroke:none"
             d="m 0,0 c -2.255,6.103 0.41,11.404 6.887,13.798 8.579,3.171 18.748,-0.778 21.568,-8.409 0.801,-2.17 0.871,-4.34 0.22,-6.855 l 2.159,-0.628 0.464,-1.255 -9.088,-1.586 -0.475,1.289 c 4.757,2.144 6.335,4.654 5.057,8.113 C 24.598,10.4 16.508,12.69 8.37,9.683 2.808,7.627 0.787,4.337 2.378,0.03 3.582,-3.225 6.216,-5.141 10.87,-6.158 L 10.508,-7.68 C 4.54,-6.339 1.541,-4.17 0,0" /></g><g
           transform="translate(370.2515,371.3008)"
           id="g368"><path
             id="path370"
             style="fill:#FFFFFF;fill-opacity:1;fill-rule:nonzero;stroke:none"
             d="m 0,0 c -1.468,-0.922 -1.996,-2.191 -1.342,-3.232 1.788,-2.847 11.485,-1.84 15.434,0.639 1.073,0.672 1.408,1.567 0.928,2.332 C 13.059,2.862 4.226,2.652 0,0 M 18.285,-2.608 19.88,-5.149 14.099,-6.345 C 10.278,-7.123 5.268,-8.729 3.92,-9.576 c -0.581,-0.365 -0.753,-0.772 -0.523,-1.14 0.366,-0.581 2.394,-0.887 5.108,-1.062 l -0.144,-1.2 c -4.058,-0.199 -7.13,0.818 -8.283,2.655 -0.595,0.949 -0.248,1.892 1.374,2.912 0.368,0.229 0.847,0.488 1.681,0.926 l -0.047,0.142 c -3.015,-0.229 -6.16,1.042 -7.427,3.063 -1.289,2.051 -0.392,4.364 2.362,6.093 5.635,3.537 15.707,2.517 18.474,-1.891 0.847,-1.348 0.754,-2.558 -0.329,-3.962 z" /></g><g
           transform="translate(406.1719,355.6074)"
           id="g372"><path
             id="path374"
             style="fill:#FFFFFF;fill-opacity:1;fill-rule:nonzero;stroke:none"
             d="M 0,0 C 0.795,0.41 1.77,0.833 2.096,1.12 2.748,1.692 2.473,2.607 1.233,4.019 L 2.239,4.518 6.85,-0.237 -15.262,-11.054 c -1.216,-0.588 -2.092,-1.068 -2.608,-1.521 -0.326,-0.288 -0.482,-0.713 -0.123,-1.12 1.025,-1.168 4.69,-0.739 5.887,-0.456 l 0.254,-1.221 c -3.449,-1.059 -7.898,-0.541 -9.378,1.143 -1.098,1.249 -1.106,2.299 0.142,3.397 0.734,0.644 2.041,1.457 4.636,2.775 z" /></g><g
           transform="translate(423.5249,342.3691)"
           id="g376"><path
             id="path378"
             style="fill:#FFFFFF;fill-opacity:1;fill-rule:nonzero;stroke:none"
             d="M 0,0 C 0.852,0.982 2.277,1.136 3.233,0.306 4.243,-0.57 4.269,-2.029 3.464,-2.958 2.634,-3.913 1.204,-3.964 0.248,-3.135 -0.653,-2.353 -0.854,-0.983 0,0 m -12.625,-9.864 c 1.75,0.968 2.675,1.649 3.102,2.141 0.427,0.492 0.354,0.794 0.163,0.96 -0.765,0.662 -3.591,0.053 -4.389,-0.26 l -0.366,1.178 c 2.268,0.904 7.01,1.241 8.894,-0.393 0.902,-0.783 0.963,-1.649 -0.221,-3.014 -0.925,-1.065 -3.127,-2.171 -6.554,-4.078 l -3.401,-1.882 c -0.469,-0.264 -1.973,-1.114 -2.422,-1.633 -0.285,-0.328 -0.381,-0.77 0.028,-1.126 1.065,-0.923 4.336,-0.076 5.385,0.306 l 0.417,-1.175 c -2.413,-1.016 -6.943,-1.825 -9.346,0.26 -1.065,0.924 -1.134,1.893 -0.044,3.149 0.9,1.037 2.227,1.848 4.493,3.137 z" /></g><g
           transform="translate(425.1689,312.46)"
           id="g380"><path
             id="path382"
             style="fill:#FFFFFF;fill-opacity:1;fill-rule:nonzero;stroke:none"
             d="m 0,0 c -0.905,-1.481 -0.687,-2.928 0.547,-3.681 2.807,-1.714 10.892,3.478 13.287,7.397 0.773,1.264 0.75,2.337 -0.3,2.977 C 10.325,8.651 2.639,4.319 0,0 m 21.626,10.439 c 0.988,0.923 1.625,1.551 1.833,1.89 0.376,0.618 -0.201,1.267 -2.331,2.567 l 1.094,1.026 5.955,-3.633 L 17.119,1.882 C 11.42,-3.495 9.542,-5.527 8.732,-6.854 8.167,-7.779 8.298,-8.326 8.731,-8.59 c 0.895,-0.545 3.085,0.404 5.396,2.384 l 1.003,-0.993 c -3.858,-3.196 -6.643,-4.079 -8.742,-2.799 -1.481,0.903 -1.712,2.399 -0.636,4.158 0.264,0.433 0.676,0.901 1.082,1.288 L 6.625,-4.34 c -3.201,-1.774 -6.594,-1.78 -8.6,-0.556 -2.097,1.281 -2.545,4.222 -0.792,7.092 3.279,5.37 12.827,8.863 17.085,6.266 1.42,-0.868 1.623,-1.712 1.636,-3.286 z" /></g><g
           transform="translate(455.3252,296.626)"
           id="g384"><path
             id="path386"
             style="fill:#FFFFFF;fill-opacity:1;fill-rule:nonzero;stroke:none"
             d="m 0,0 c -0.605,-1.626 -0.25,-2.954 0.902,-3.382 3.151,-1.172 10.232,5.53 11.856,9.903 0.441,1.185 0.164,2.098 -0.683,2.414 C 8.619,10.219 1.738,4.677 0,0 M 16.095,9.061 18.906,8.014 15.049,3.548 C 12.488,0.604 9.492,-3.721 8.938,-5.212 8.699,-5.856 8.81,-6.283 9.216,-6.434 c 0.644,-0.24 2.439,0.752 4.699,2.264 l 0.616,-1.039 c -3.097,-2.628 -6.153,-3.69 -8.187,-2.935 -1.05,0.391 -1.35,1.351 -0.682,3.147 0.151,0.406 0.374,0.902 0.77,1.759 l -0.124,0.084 c -2.252,-2.017 -5.521,-2.924 -7.757,-2.093 -2.271,0.844 -2.968,3.225 -1.834,6.275 2.318,6.235 10.93,11.558 15.81,9.743 1.491,-0.553 2.154,-1.572 2.151,-3.344 z" /></g><g
           transform="translate(487.0488,286.6592)"
           id="g388"><path
             id="path390"
             style="fill:#FFFFFF;fill-opacity:1;fill-rule:nonzero;stroke:none"
             d="m 0,0 c -0.282,-1.712 0.464,-2.971 1.891,-3.206 3.246,-0.532 8.785,7.313 9.53,11.844 0.24,1.463 -0.184,2.448 -1.398,2.647 C 6.313,11.895 0.82,4.993 0,0 m 16.113,17.795 c 0.568,1.226 0.923,2.047 0.987,2.439 0.117,0.713 -0.662,1.098 -3.124,1.502 L 14.604,23.1 21.488,21.969 15.155,8.171 C 11.896,1.049 10.92,-1.538 10.669,-3.072 c -0.175,-1.072 0.152,-1.528 0.652,-1.61 1.034,-0.17 2.705,1.535 4.103,4.236 l 1.303,-0.544 c -2.374,-4.409 -4.623,-6.275 -7.048,-5.877 -1.713,0.282 -2.488,1.582 -2.153,3.615 0.082,0.499 0.288,1.088 0.518,1.6 l -0.273,0.118 c -2.3,-2.846 -5.44,-4.125 -7.76,-3.744 -2.425,0.398 -3.947,2.957 -3.402,6.274 1.02,6.208 8.553,13.029 13.476,12.221 1.642,-0.27 2.148,-0.976 2.752,-2.43 z" /></g><g
           transform="translate(540.3052,283.4229)"
           id="g392"><path
             id="path394"
             style="fill:#FFFFFF;fill-opacity:1;fill-rule:nonzero;stroke:none"
             d="m 0,0 c 0,-1.735 0.795,-2.856 2.023,-2.856 3.363,0 7.666,8.749 7.666,13.412 0,1.266 -0.579,2.025 -1.482,2.025 C 4.519,12.581 0,4.988 0,0 m 11.93,14.1 h 3.002 L 12.87,8.568 c -1.373,-3.652 -2.675,-8.75 -2.675,-10.339 0,-0.688 0.253,-1.049 0.686,-1.049 0.688,0 2.025,1.554 3.616,3.759 l 0.94,-0.758 c -1.988,-3.544 -4.483,-5.604 -6.652,-5.604 -1.121,0 -1.735,0.795 -1.735,2.711 0,0.435 0.035,0.977 0.108,1.917 L 7.014,-0.759 C 5.604,-3.436 2.856,-5.423 0.47,-5.423 c -2.423,0 -3.905,1.987 -3.905,5.241 0,6.653 6.219,14.643 11.425,14.643 1.59,0 2.566,-0.724 3.181,-2.386 z" /></g><g
           transform="translate(568.7178,292.3477)"
           id="g396"><path
             id="path398"
             style="fill:#FFFFFF;fill-opacity:1;fill-rule:nonzero;stroke:none"
             d="M 0,0 C 0.943,2.48 4.379,5.65 6.293,5.763 7.448,5.829 8,5.027 8.111,3.114 8.155,2.356 8.123,1.666 7.997,0.717 L 8.111,0.614 C 9.14,3.5 12.226,6.468 14.391,6.594 15.763,6.673 16.904,5.725 16.979,4.425 17.052,3.161 16.202,2.206 14.975,2.135 13.459,2.047 13.238,3.375 12.371,3.324 10.531,3.219 7.657,-2.165 5.907,-8.824 L 4.57,-13.902 1.215,-14.097 3.127,-6.485 C 4.636,-0.638 4.972,1.049 4.914,2.06 4.881,2.601 4.687,2.844 4.326,2.822 3.352,2.766 1.5,0.992 0.965,-0.416 Z" /></g><g
           transform="translate(603.2603,298.626)"
           id="g400"><path
             id="path402"
             style="fill:#FFFFFF;fill-opacity:1;fill-rule:nonzero;stroke:none"
             d="m 0,0 -0.835,-10.354 c -0.115,-1.356 -0.122,-2.356 -0.012,-3.035 0.093,-0.424 0.352,-0.775 0.883,-0.661 1.661,0.359 3.353,3.831 3.76,5.029 L 4.951,-9.4 c -0.931,-3.568 -3.798,-7.256 -6.096,-7.753 -1.625,-0.35 -2.477,0.169 -2.829,1.795 -0.197,0.919 -0.242,2.499 -0.025,5.432 l 0.748,9.225 -3.041,-0.657 0.109,1.725 3.076,0.664 0.525,6.477 L 0.671,8.209 0.144,1.732 3.997,2.563 3.854,0.831 Z" /></g><g
           transform="translate(624.7246,297.6201)"
           id="g404"><path
             id="path406"
             style="fill:#FFFFFF;fill-opacity:1;fill-rule:nonzero;stroke:none"
             d="M 0,0 C 3.863,2.844 6.004,6.844 4.963,9.543 4.601,10.487 4.014,10.804 3.238,10.505 0.877,9.596 -0.437,4.557 0,0 m 9.836,-0.899 c -0.701,-3.913 -2.562,-6.526 -5.36,-7.604 -3.072,-1.182 -5.604,0.167 -6.942,3.642 -2.39,6.208 0.64,15.237 5.769,17.212 2.158,0.831 4.145,0.2 4.807,-1.521 C 9.318,7.693 5.732,2.015 0.247,-1.648 c 0.146,-0.679 0.346,-1.3 0.58,-1.907 0.922,-2.394 2.326,-3.326 4.012,-2.677 1.655,0.637 3.01,2.747 3.645,5.626 z" /></g><g
           transform="translate(648.6841,320.3447)"
           id="g408"><path
             id="path410"
             style="fill:#FFFFFF;fill-opacity:1;fill-rule:nonzero;stroke:none"
             d="m 0,0 c 2.004,1.157 4.159,0.897 5.062,-0.667 0.507,-0.877 0.282,-1.717 -0.532,-2.187 -1.909,-1.105 -2.907,1.996 -4.473,1.09 -0.908,-0.524 -1.103,-1.847 -0.434,-3.007 1.61,-2.786 6.514,-2.166 8.938,-6.364 1.627,-2.818 0.322,-6.704 -2.528,-8.349 -2.474,-1.43 -4.789,-1.18 -5.802,0.573 -0.687,1.191 -0.495,2.304 0.444,2.847 0.877,0.505 1.771,0.188 2.602,-0.961 0.903,-1.275 1.303,-1.462 2.243,-0.919 1.502,0.869 1.881,2.381 0.976,3.948 -1.952,3.382 -6.739,2.413 -8.927,6.202 C -4.022,-5.038 -3.007,-1.737 0,0" /></g><g
           transform="translate(673.4746,319.5547)"
           id="g412"><path
             id="path414"
             style="fill:#FFFFFF;fill-opacity:1;fill-rule:nonzero;stroke:none"
             d="m 0,0 c 1.107,-1.336 2.435,-1.691 3.382,-0.908 2.59,2.144 0.324,11.628 -2.65,15.221 -0.807,0.974 -1.736,1.189 -2.434,0.613 C -4.541,12.575 -3.181,3.844 0,0 M 0.199,18.472 2.51,20.385 4.45,14.809 C 5.721,11.12 7.969,6.362 8.984,5.139 9.422,4.608 9.848,4.491 10.181,4.769 c 0.53,0.438 0.569,2.488 0.388,5.202 l 1.208,0.013 C 12.505,5.987 11.898,2.81 10.226,1.426 9.362,0.712 8.382,0.932 7.16,2.407 6.884,2.742 6.566,3.183 6.022,3.953 L 5.887,3.889 C 6.508,0.929 5.66,-2.355 3.821,-3.877 1.956,-5.423 -0.455,-4.835 -2.53,-2.329 c -4.242,5.124 -4.548,15.245 -0.537,18.564 1.226,1.016 2.438,1.081 3.972,0.192 z" /></g><g
           transform="translate(698.2891,346.1191)"
           id="g416"><path
             id="path418"
             style="fill:#FFFFFF;fill-opacity:1;fill-rule:nonzero;stroke:none"
             d="m 0,0 3.904,-6.646 -2.014,-2.463 -4.714,7.31 c -3.01,4.655 -4.239,6.407 -4.967,7.003 -0.476,0.389 -0.893,0.45 -1.145,0.143 -0.686,-0.84 0.317,-4.182 1.989,-6.762 l -1.106,-0.497 c -2.731,4.427 -3.245,7.51 -1.552,9.581 0.984,1.202 1.966,1.145 3.56,-0.158 0.953,-0.779 1.649,-1.581 2.158,-2.558 l 0.153,0.016 c -1.774,4.626 -1.729,7.763 0.147,10.058 1.328,1.623 2.871,1.855 4.326,0.665 0.979,-0.8 1.908,-2.121 4.3,-5.992 C 6.848,6.774 8.135,4.693 8.834,4.122 9.114,3.893 9.323,3.862 9.482,4.059 9.917,4.591 9.884,6.205 9.378,9.468 l 0.986,0.407 C 11.591,6.865 11.597,2.19 10.383,0.708 9.629,-0.216 8.254,-0.072 6.911,1.027 5.875,1.873 5.358,2.669 1.358,9.256 c -1.38,2.249 -1.92,3.017 -2.592,3.566 -0.699,0.574 -1.242,0.595 -1.653,0.092 C -4.328,11.151 -2.822,4.829 0,0" /></g><g
           transform="translate(718.4604,370.6016)"
           id="g420"><path
             id="path422"
             style="fill:#FFFFFF;fill-opacity:1;fill-rule:nonzero;stroke:none"
             d="M 0,0 C 1.53,-0.818 2.893,-0.646 3.473,0.438 5.057,3.403 -0.63,11.327 -4.743,13.527 -5.859,14.125 -6.801,13.973 -7.228,13.176 -8.965,9.924 -4.4,2.354 0,0 m -6.811,17.176 1.415,2.646 3.906,-4.426 C 1.082,12.459 4.965,8.905 6.367,8.155 6.974,7.83 7.411,7.883 7.616,8.266 7.94,8.872 7.199,10.785 6.004,13.229 l 1.113,0.47 C 9.304,10.273 9.945,7.101 8.923,5.188 8.395,4.2 7.403,4.034 5.714,4.937 5.331,5.143 4.87,5.43 4.075,5.937 l -0.1,-0.11 C 5.669,3.321 6.128,-0.04 5.003,-2.145 3.862,-4.281 1.41,-4.649 -1.46,-3.114 -7.326,0.025 -11.441,9.28 -8.987,13.872 c 0.75,1.403 1.847,1.922 3.603,1.68 z" /></g><g
           transform="translate(714.2554,409.5879)"
           id="g424"><path
             id="path426"
             style="fill:#FFFFFF;fill-opacity:1;fill-rule:nonzero;stroke:none"
             d="M 0,0 C -0.75,0.486 -1.603,1.121 -2.014,1.262 -2.835,1.543 -3.492,0.851 -4.101,-0.929 l -0.932,0.625 1.834,6.366 20.383,-13.812 c 1.114,-0.764 1.968,-1.285 2.618,-1.507 0.411,-0.14 0.858,-0.063 1.033,0.449 0.502,1.472 -1.691,4.439 -2.531,5.338 l 0.933,0.827 c 2.633,-2.467 4.396,-6.587 3.671,-8.709 -0.538,-1.573 -1.447,-2.103 -3.02,-1.564 -0.924,0.315 -2.279,1.046 -4.714,2.643 z" /></g><g
           transform="translate(326.374,554.8369)"
           id="g428"><path
             id="path430"
             style="fill:#FFFFFF;fill-opacity:1;fill-rule:nonzero;stroke:none"
             d="m 0,0 c -3.472,0 -6.446,-2.419 -6.446,-6.356 0,-3.938 2.974,-6.356 6.446,-6.356 3.347,0 5.361,1.891 5.733,2.418 v -5.271 c -0.62,-0.497 -2.758,-2.108 -6.415,-2.108 -6.105,0 -11.033,4.836 -11.033,11.317 0,6.48 4.928,11.317 11.033,11.317 3.657,0 5.795,-1.612 6.415,-2.108 V -2.419 C 5.361,-1.892 3.347,0 0,0" /></g><g
           transform="translate(353.6475,548.4805)"
           id="g432"><path
             id="path434"
             style="fill:#FFFFFF;fill-opacity:1;fill-rule:nonzero;stroke:none"
             d="m 0,0 c 0,3.473 -2.417,6.356 -6.043,6.356 -3.626,0 -6.043,-2.883 -6.043,-6.356 0,-3.473 2.417,-6.355 6.043,-6.355 C -2.417,-6.355 0,-3.473 0,0 m -17.354,0 c 0,6.295 5.02,11.317 11.311,11.317 6.291,0 11.312,-5.022 11.312,-11.317 0,-6.294 -5.021,-11.316 -11.312,-11.316 -6.291,0 -11.311,5.022 -11.311,11.316" /></g><g
           transform="translate(378.5977,542.4346)"
           id="g436"><path
             id="path438"
             style="fill:#FFFFFF;fill-opacity:1;fill-rule:nonzero;stroke:none"
             d="m 0,0 v -4.961 h -14.256 v 22.015 h 5.269 V 0 Z" /></g><g
           transform="translate(718.2891,546.5586)"
           id="g440"><path
             id="path442"
             style="fill:#FFFFFF;fill-opacity:1;fill-rule:nonzero;stroke:none"
             d="M 0,0 -2.2,6.139 -4.4,0 Z M 1.798,-4.961 H -6.198 L -7.686,-9.085 H -13.14 L -5.206,12.93 H 0.806 L 8.739,-9.085 H 3.285 Z" /></g><g
           transform="translate(735.8623,548.7598)"
           id="g444"><path
             id="path446"
             style="fill:#FFFFFF;fill-opacity:1;fill-rule:nonzero;stroke:none"
             d="M 0,0 H 3.564 C 5.3,0 6.602,1.085 6.602,2.884 6.602,4.682 5.3,5.768 3.564,5.768 H 0 Z M 2.604,-4.961 H 0 v -6.325 h -5.269 v 22.015 h 8.833 c 4.277,0 8.306,-2.947 8.306,-7.845 0,-3.132 -1.642,-5.488 -3.967,-6.76 l 4.277,-7.41 H 6.261 Z" /></g><g
           transform="translate(773.7969,550.248)"
           id="g448"><path
             id="path450"
             style="fill:#FFFFFF;fill-opacity:1;fill-rule:nonzero;stroke:none"
             d="m 0,0 c 0,-8.65 -4.68,-13.084 -11.25,-13.084 -6.26,0 -10.939,5.147 -10.939,11.316 0,6.17 4.679,11.318 11.559,11.318 3.657,0 6.539,-1.737 8.584,-4.404 L -6.013,2.108 c -0.867,1.241 -2.385,2.481 -4.617,2.481 -3.781,0 -6.291,-2.729 -6.291,-6.357 0,-3.627 2.2,-6.355 5.671,-6.355 2.604,0 4.463,1.146 5.361,3.162 h -6.756 V 0 Z" /></g></g></g></g></svg>